<svg width="30" height="31" viewBox="0 0 30 31" fill="none" xmlns="http://www.w3.org/2000/svg">
<path d="M28.455 6.25344C28.1922 5.92033 27.8572 5.65129 27.4752 5.46663C27.0932 5.28197 26.6743 5.18653 26.25 5.1875H7.24969L6.53813 2.16031C6.48971 1.95452 6.37317 1.77114 6.20741 1.63993C6.04165 1.50871 5.83641 1.43738 5.625 1.4375H1.875C1.62636 1.4375 1.3879 1.53627 1.21209 1.71209C1.03627 1.8879 0.9375 2.12636 0.9375 2.375C0.9375 2.62364 1.03627 2.8621 1.21209 3.03791C1.3879 3.21373 1.62636 3.3125 1.875 3.3125H4.8825L8.19656 17.3994C7.47382 17.4585 6.80208 17.7953 6.32225 18.339C5.84243 18.8827 5.59181 19.5911 5.62298 20.3156C5.65414 21.0401 5.96467 21.7243 6.48942 22.2248C7.01417 22.7253 7.71235 23.0031 8.4375 23H24.375C24.6236 23 24.8621 22.9012 25.0379 22.7254C25.2137 22.5496 25.3125 22.3111 25.3125 22.0625C25.3125 21.8139 25.2137 21.5754 25.0379 21.3996C24.8621 21.2238 24.6236 21.125 24.375 21.125H8.4375C8.18886 21.125 7.9504 21.0262 7.77459 20.8504C7.59877 20.6746 7.5 20.4361 7.5 20.1875C7.5 19.9389 7.59877 19.7004 7.77459 19.5246C7.9504 19.3488 8.18886 19.25 8.4375 19.25H24.2644C24.8987 19.2516 25.5148 19.038 26.0121 18.6442C26.5093 18.2503 26.8582 17.6994 27.0019 17.0816L28.9884 8.64406C29.0865 8.23121 29.0895 7.80147 28.9971 7.38731C28.9046 6.97315 28.7193 6.58543 28.455 6.25344Z" fill="white"/>
<path d="M21.5625 29.5625C23.1158 29.5625 24.375 28.3033 24.375 26.75C24.375 25.1967 23.1158 23.9375 21.5625 23.9375C20.0092 23.9375 18.75 25.1967 18.75 26.75C18.75 28.3033 20.0092 29.5625 21.5625 29.5625Z" fill="white"/>
<path d="M11.25 29.5625C12.8033 29.5625 14.0625 28.3033 14.0625 26.75C14.0625 25.1967 12.8033 23.9375 11.25 23.9375C9.6967 23.9375 8.4375 25.1967 8.4375 26.75C8.4375 28.3033 9.6967 29.5625 11.25 29.5625Z" fill="white"/>
</svg>
