<svg width="20" height="21" viewBox="0 0 20 21" fill="none" xmlns="http://www.w3.org/2000/svg">
<g clip-path="url(#clip0_3639_2836)">
<path d="M14.2821 0.5H5.71784C5.24429 0.500171 4.79019 0.688364 4.45534 1.02321C4.12049 1.35806 3.9323 1.81217 3.93213 2.28571V3.27143H16.0678V2.28571C16.0677 1.81217 15.8795 1.35806 15.5446 1.02321C15.2098 0.688364 14.7557 0.500171 14.2821 0.5ZM11.8643 2.24286H8.1357C8.0419 2.24146 7.95241 2.20322 7.88657 2.13639C7.82073 2.06957 7.78382 1.97952 7.78382 1.88571C7.78383 1.79189 7.82074 1.70185 7.88658 1.63502C7.95243 1.5682 8.04192 1.52996 8.13572 1.52857H11.8643C11.9581 1.52996 12.0476 1.5682 12.1134 1.63503C12.1792 1.70185 12.2162 1.7919 12.2162 1.88571C12.2162 1.97953 12.1792 2.06957 12.1134 2.1364C12.0476 2.20323 11.9581 2.24147 11.8643 2.24286Z" fill="#212121"/>
<path d="M3.93213 17.8464V18.7143C3.9323 19.1878 4.12049 19.6419 4.45534 19.9768C4.79019 20.3116 5.24429 20.4998 5.71784 20.5H14.2821C14.7557 20.4998 15.2098 20.3116 15.5446 19.9768C15.8795 19.6419 16.0677 19.1878 16.0678 18.7143V17.8464H3.93213ZM9.22499 18.8143H10.775C10.8697 18.8143 10.9605 18.8519 11.0275 18.9189C11.0945 18.9859 11.1321 19.0767 11.1321 19.1714C11.1321 19.2662 11.0945 19.357 11.0275 19.424C10.9605 19.491 10.8697 19.5286 10.775 19.5286H9.22499C9.13137 19.5269 9.04216 19.4885 8.97655 19.4217C8.91094 19.3549 8.87418 19.2651 8.87418 19.1714C8.87418 19.0778 8.91094 18.9879 8.97655 18.9211C9.04216 18.8543 9.13137 18.816 9.22499 18.8143Z" fill="#212121"/>
<path d="M3.93213 3.9856H16.0678V17.132H3.93213V3.9856Z" fill="#212121"/>
</g>
<defs>
<clipPath id="clip0_3639_2836">
<rect width="20" height="20" fill="white" transform="translate(0 0.5)"/>
</clipPath>
</defs>
</svg>
