<svg xmlns="http://www.w3.org/2000/svg" width="20" height="20" viewBox="0 0 20 20" fill="none">
                                    <path d="M18.8998 1.10016C18.1666 0.366766 17.2832 0 16.2503 0H3.75022C2.71733 0 1.83394 0.366766 1.1004 1.10016C0.36701 1.83369 0.000244141 2.71704 0.000244141 3.74998V16.2499C0.000244141 17.2828 0.36701 18.1662 1.1004 18.8997C1.83394 19.6333 2.71733 20 3.75022 20H16.2502C17.2831 20 18.1665 19.6333 18.8997 18.8997C19.6332 18.1662 20 17.2828 20 16.2499V3.74998C19.9999 2.71704 19.6332 1.83356 18.8998 1.10016ZM17.0183 10.2864H14.7397V18.5545H11.3283V10.2864H9.62258V7.43474H11.3283V5.72897C11.3283 4.50499 11.6148 3.5806 12.1877 2.95552C12.7604 2.33044 13.7065 2.01808 15.0263 2.01808H17.3049V4.86966H15.8728C15.3865 4.86966 15.0762 4.95417 14.9417 5.12359C14.8072 5.29284 14.7397 5.59015 14.7397 6.01556V7.43478H17.318L17.0183 10.2864Z" fill="#212121"/>
                                </svg>