<svg width="20" height="20" viewBox="0 0 20 20" fill="none" xmlns="http://www.w3.org/2000/svg">
<path d="M18.8992 1.10034C18.166 0.366976 17.2827 0.000228021 16.2498 0.000228021V0H3.75048C2.71764 0 1.83434 0.366839 1.10084 1.1002C0.367481 1.8337 0.000732422 2.717 0.000732422 3.74984V16.2494C0.000732422 17.2822 0.367481 18.1656 1.10084 18.8988C1.83434 19.6323 2.71769 19.999 3.75053 19.999H6.13334C5.98563 18.6627 6.01601 17.5601 6.22442 16.6922L7.50033 11.3019C7.29201 10.8764 7.18776 10.3514 7.18776 9.72658C7.18776 9.00622 7.37223 8.40064 7.74125 7.91031C8.11001 7.41974 8.55925 7.17453 9.08872 7.17453C9.51402 7.17453 9.84173 7.31554 10.0717 7.59755C10.3016 7.8798 10.4167 8.2335 10.4167 8.65885C10.4167 8.92782 10.369 9.25125 10.2736 9.62871C10.1779 10.0065 10.0501 10.4491 9.88953 10.957C9.72895 11.4648 9.61399 11.8661 9.54449 12.1611C9.42304 12.6821 9.52278 13.1311 9.84397 13.5089C10.1651 13.8863 10.586 14.0754 11.107 14.0754C12.0272 14.0754 12.7801 13.5633 13.3662 12.5388C13.9521 11.5148 14.2449 10.2734 14.2449 8.81532C14.2449 7.69569 13.8825 6.78411 13.1574 6.08112C12.4329 5.378 11.4238 5.02639 10.1304 5.02639C8.68106 5.02639 7.50694 5.48873 6.60845 6.41308C5.71 7.33752 5.26076 8.45085 5.26076 9.7528C5.26076 10.5166 5.47788 11.1677 5.91185 11.7059C6.05933 11.8707 6.10717 12.0532 6.05504 12.253C6.01158 12.4006 5.94651 12.6653 5.85972 13.047C5.82492 13.1687 5.76208 13.251 5.67087 13.2946C5.57957 13.3379 5.47765 13.3379 5.36482 13.2946C4.6965 13.0169 4.19066 12.5392 3.84789 11.8622C3.50509 11.1853 3.33366 10.4039 3.33366 9.51872C3.33366 8.94575 3.42701 8.37045 3.61367 7.79347C3.80033 7.21612 4.08896 6.66062 4.47951 6.12687C4.87007 5.59289 5.3365 5.11769 5.8791 4.70096C6.42152 4.28451 7.0857 3.95246 7.87118 3.70506C8.65657 3.4577 9.50089 3.33398 10.4033 3.33398C11.3236 3.33398 12.1785 3.49268 12.9685 3.80945C13.7584 4.12617 14.4202 4.54709 14.9543 5.07223C15.488 5.5974 15.9069 6.20065 16.2105 6.88212C16.5145 7.56335 16.6663 8.26875 16.6663 8.99778C16.6663 10.9596 16.1694 12.5806 15.1756 13.8609C14.1818 15.1412 12.8993 15.7815 11.3283 15.7815C10.8071 15.7815 10.3192 15.6599 9.86335 15.417C9.40772 15.174 9.08872 14.8832 8.90639 14.5446C8.5245 16.0637 8.29452 16.9706 8.21636 17.2657C8.01675 18.0296 7.54803 18.9409 6.81025 20H16.2497C17.2825 20 18.1659 19.6332 18.8991 18.8997C19.6326 18.1662 19.9993 17.2829 19.9993 16.25V3.74993C19.9993 2.71718 19.6326 1.83383 18.8992 1.10034Z" fill="#212121"/>
</svg>
