<svg xmlns="http://www.w3.org/2000/svg" width="51" height="50" viewBox="0 0 51 50" fill="none">
                        <path fill-rule="evenodd" clip-rule="evenodd" d="M14.7318 8C14.0128 7.99929 13.3056 8.18176 12.6767 8.53019C12.0318 8.85891 11.4885 9.35694 11.105 9.9709C10.7216 10.5849 10.5124 11.2916 10.5 12.0153V37.9825C10.5124 38.7062 10.7216 39.413 11.105 40.0269C11.4885 40.6409 12.0318 41.1389 12.6767 41.4676C13.317 41.8233 14.0386 42.0066 14.771 41.9998C15.5034 41.993 16.2214 41.7962 16.855 41.4287L37.8437 28.4464C38.4914 28.1199 39.0357 27.62 39.4159 27.0024C39.7962 26.3847 39.9974 25.6736 39.9971 24.9483C39.9969 24.223 39.7952 23.512 39.4145 22.8946C39.0338 22.2772 38.4892 21.7777 37.8412 21.4517L16.8525 8.56667C16.2078 8.19453 15.4762 7.99906 14.7318 8Z" fill="white"/>
                    </svg>