<svg width="30" height="31" viewBox="0 0 30 31" fill="none" xmlns="http://www.w3.org/2000/svg">
<g clip-path="url(#clip0_3639_14714)">
<path d="M15 0.5C6.71602 0.5 0 7.21602 0 15.5C0 23.784 6.71602 30.5 15 30.5C23.284 30.5 30 23.784 30 15.5C30 7.21602 23.284 0.5 15 0.5ZM15 5.07031C16.0649 5.07031 17.1059 5.38609 17.9913 5.97771C18.8767 6.56933 19.5668 7.41023 19.9743 8.39406C20.3818 9.37789 20.4885 10.4605 20.2807 11.5049C20.073 12.5493 19.5602 13.5087 18.8072 14.2617C18.0542 15.0147 17.0948 15.5275 16.0504 15.7352C15.006 15.943 13.9234 15.8363 12.9396 15.4288C11.9557 15.0213 11.1148 14.3312 10.5232 13.4458C9.9316 12.5604 9.61582 11.5194 9.61582 10.4545C9.61582 9.02652 10.1831 7.65703 11.1928 6.6473C12.2025 5.63757 13.572 5.07031 15 5.07031ZM24.0012 23.0047C22.9014 24.3239 21.525 25.3853 19.9696 26.1137C18.4141 26.842 16.7175 27.2196 15 27.2196C13.2825 27.2196 11.5859 26.842 10.0304 26.1137C8.47497 25.3853 7.09863 24.3239 5.99883 23.0047C5.8501 22.8265 5.7454 22.6158 5.69318 22.3896C5.64096 22.1634 5.6427 21.9281 5.69824 21.7027C6.20869 19.6315 7.39557 17.7897 9.0709 16.4691C9.3208 16.2732 9.62805 16.1647 9.94556 16.1601C10.2631 16.1556 10.5733 16.2553 10.8287 16.4439C11.942 17.2719 13.4016 17.7734 14.9977 17.7734C16.5938 17.7734 18.0527 17.2719 19.1666 16.4439C19.422 16.2553 19.7323 16.1556 20.0498 16.1601C20.3673 16.1647 20.6745 16.2732 20.9244 16.4691C22.5997 17.7897 23.7866 19.6315 24.2971 21.7027C24.3532 21.9278 24.3557 22.1628 24.3043 22.389C24.2529 22.6151 24.1491 22.8261 24.0012 23.0047Z" fill="white"/>
</g>
<defs>
<clipPath id="clip0_3639_14714">
<rect width="30" height="30" fill="white" transform="translate(0 0.5)"/>
</clipPath>
</defs>
</svg>
