<svg width="30" height="31" viewBox="0 0 30 31" fill="none" xmlns="http://www.w3.org/2000/svg">
<path d="M20.9672 17.9047C22.2525 15.7506 22.7065 13.2011 22.2437 10.7358C21.7809 8.2705 20.4333 6.05922 18.4543 4.51793C16.4753 2.97664 14.0014 2.21156 11.4978 2.36661C8.99419 2.52165 6.63352 3.58614 4.85983 5.35983C3.08614 7.13352 2.02165 9.49419 1.86661 11.9978C1.71156 14.5014 2.47664 16.9753 4.01793 18.9543C5.55922 20.9333 7.7705 22.2809 10.2358 22.7437C12.7011 23.2065 15.2506 22.7525 17.4047 21.4672L18.5109 22.5734L22.0734 19.0109L20.9672 17.9047ZM12.1453 20.7125C10.5504 20.712 8.99147 20.2387 7.66557 19.3523C6.33967 18.466 5.30635 17.2064 4.69623 15.7328C4.08611 14.2593 3.9266 12.6379 4.23785 11.0737C4.54911 9.50946 5.31717 8.07266 6.44491 6.94491C7.57266 5.81717 9.00946 5.04911 10.5737 4.73785C12.1379 4.4266 13.7593 4.58611 15.2328 5.19623C16.7064 5.80635 17.966 6.83967 18.8523 8.16557C19.7387 9.49147 20.212 11.0504 20.2125 12.6453C20.2104 14.7842 19.3598 16.8349 17.8473 18.3473C16.3349 19.8598 14.2842 20.7104 12.1453 20.7125Z" fill="#212121"/>
<path d="M22.739 19.6765L19.1765 23.239L23.8265 27.8843C24.06 28.1187 24.3373 28.3047 24.6427 28.4317C24.9482 28.5587 25.2756 28.6242 25.6064 28.6245C25.9372 28.6248 26.2648 28.5599 26.5704 28.4335C26.8761 28.307 27.1538 28.1216 27.3877 27.8877C27.6216 27.6538 27.807 27.3761 27.9335 27.0704C28.0599 26.7648 28.1248 26.4372 28.1245 26.1064C28.1242 25.7756 28.0587 25.4482 27.9317 25.1427C27.8047 24.8373 27.6187 24.56 27.3843 24.3265L22.739 19.6765Z" fill="#212121"/>
<path d="M12.1453 14.0515C12.9219 14.0515 13.5515 13.4219 13.5515 12.6453C13.5515 11.8686 12.9219 11.239 12.1453 11.239C11.3686 11.239 10.739 11.8686 10.739 12.6453C10.739 13.4219 11.3686 14.0515 12.1453 14.0515Z" fill="#212121"/>
<path d="M9.33276 12.1765H7.92651C7.80219 12.1765 7.68296 12.2259 7.59506 12.3138C7.50715 12.4017 7.45776 12.5209 7.45776 12.6453C7.45776 12.7696 7.50715 12.8888 7.59506 12.9767C7.68296 13.0646 7.80219 13.114 7.92651 13.114H9.33276C9.45708 13.114 9.57631 13.0646 9.66422 12.9767C9.75213 12.8888 9.80151 12.7696 9.80151 12.6453C9.80151 12.5209 9.75213 12.4017 9.66422 12.3138C9.57631 12.2259 9.45708 12.1765 9.33276 12.1765Z" fill="#212121"/>
<path d="M10.9734 14.6749C10.8658 14.6136 10.7383 14.5974 10.6188 14.6299C10.4994 14.6624 10.3976 14.741 10.3359 14.8483L9.63278 16.0671C9.60191 16.12 9.58178 16.1785 9.57355 16.2392C9.56533 16.2999 9.56916 16.3616 9.58484 16.4208C9.60051 16.4801 9.62772 16.5356 9.66491 16.5843C9.70209 16.633 9.74852 16.6739 9.80153 16.7046C9.8718 16.7483 9.95313 16.7711 10.0359 16.7702C10.1184 16.7702 10.1996 16.7486 10.2711 16.7074C10.3427 16.6663 10.4022 16.6071 10.4437 16.5358L11.1469 15.317C11.1778 15.2635 11.1978 15.2044 11.2058 15.1431C11.2138 15.0819 11.2096 15.0196 11.1935 14.9599C11.1774 14.9003 11.1496 14.8444 11.1119 14.7955C11.0741 14.7466 11.027 14.7056 10.9734 14.6749Z" fill="#212121"/>
<path d="M13.9594 14.8483C13.9289 14.7945 13.888 14.7473 13.8392 14.7093C13.7904 14.6714 13.7345 14.6435 13.6748 14.6273C13.6151 14.611 13.5528 14.6068 13.4915 14.6147C13.4302 14.6227 13.371 14.6428 13.3175 14.6737C13.2639 14.7047 13.217 14.7459 13.1795 14.7951C13.142 14.8442 13.1146 14.9004 13.0989 14.9602C13.0832 15.02 13.0794 15.0823 13.0879 15.1436C13.0964 15.2049 13.117 15.2638 13.1484 15.3171L13.8515 16.5358C13.8926 16.6076 13.9521 16.6671 14.0237 16.7082C14.0954 16.7494 14.1767 16.7708 14.2594 16.7702C14.3407 16.7711 14.4205 16.7483 14.489 16.7046C14.5427 16.6746 14.5898 16.6341 14.6277 16.5856C14.6655 16.5371 14.6934 16.4816 14.7095 16.4222C14.7256 16.3629 14.7298 16.3009 14.7217 16.2399C14.7137 16.179 14.6935 16.1202 14.6625 16.0671L13.9594 14.8483Z" fill="#212121"/>
<path d="M14.9578 13.114H16.364C16.4883 13.114 16.6076 13.0646 16.6955 12.9767C16.7834 12.8888 16.8328 12.7696 16.8328 12.6453C16.8328 12.5209 16.7834 12.4017 16.6955 12.3138C16.6076 12.2259 16.4883 12.1765 16.364 12.1765H14.9578C14.8334 12.1765 14.7142 12.2259 14.6263 12.3138C14.5384 12.4017 14.489 12.5209 14.489 12.6453C14.489 12.7696 14.5384 12.8888 14.6263 12.9767C14.7142 13.0646 14.8334 13.114 14.9578 13.114Z" fill="#212121"/>
<path d="M13.3172 10.6156C13.3883 10.6573 13.4691 10.6799 13.5515 10.6812C13.6341 10.6812 13.7152 10.6596 13.7867 10.6185C13.8583 10.5774 13.9178 10.5182 13.9594 10.4468L14.6625 9.22809C14.6937 9.17483 14.7141 9.11591 14.7224 9.05474C14.7308 8.99357 14.727 8.93135 14.7112 8.87166C14.6955 8.81197 14.668 8.75599 14.6306 8.70693C14.5931 8.65787 14.5463 8.61671 14.4928 8.58582C14.4394 8.55492 14.3803 8.53489 14.3191 8.5269C14.2579 8.5189 14.1957 8.52308 14.1361 8.53921C14.0765 8.55534 14.0207 8.58309 13.9718 8.62087C13.923 8.65865 13.8821 8.70571 13.8516 8.75934L13.1484 9.97809C13.1175 10.031 13.0974 10.0895 13.0892 10.1502C13.081 10.2109 13.0848 10.2726 13.1005 10.3319C13.1161 10.3911 13.1433 10.4466 13.1805 10.4953C13.2177 10.544 13.2641 10.5849 13.3172 10.6156Z" fill="#212121"/>
<path d="M10.3359 10.447C10.3987 10.5534 10.5009 10.6307 10.6203 10.6621C10.7398 10.6934 10.8668 10.6764 10.9737 10.6146C11.0807 10.5527 11.1588 10.4512 11.1913 10.332C11.2237 10.2129 11.2077 10.0857 11.1469 9.97823L10.4437 8.75948C10.4132 8.70567 10.3724 8.65842 10.3236 8.62048C10.2747 8.58253 10.2189 8.55464 10.1592 8.5384C10.0995 8.52216 10.0372 8.51791 9.97586 8.52588C9.91453 8.53385 9.85538 8.55389 9.80184 8.58484C9.74829 8.61579 9.70141 8.65704 9.66389 8.70621C9.62637 8.75538 9.59896 8.81149 9.58325 8.87131C9.56753 8.93113 9.56382 8.99347 9.57232 9.05473C9.58082 9.11599 9.60138 9.17496 9.63279 9.22823L10.3359 10.447Z" fill="#212121"/>
<path d="M12.1453 9.83276C12.2695 9.8324 12.3885 9.7829 12.4763 9.69507C12.5642 9.60724 12.6137 9.48822 12.614 9.36401V6.6687C12.614 6.54438 12.5646 6.42515 12.4767 6.33724C12.3888 6.24934 12.2696 6.19995 12.1453 6.19995C12.0209 6.19995 11.9017 6.24934 11.8138 6.33724C11.7259 6.42515 11.6765 6.54438 11.6765 6.6687V9.36401C11.6769 9.48822 11.7264 9.60723 11.8142 9.69506C11.902 9.78289 12.0211 9.83239 12.1453 9.83276Z" fill="#212121"/>
<path d="M6.73605 10.0625L9.07043 11.4125C9.17859 11.4747 9.30701 11.4913 9.42744 11.4588C9.54787 11.4263 9.65045 11.3473 9.71261 11.2391C9.77477 11.1309 9.79142 11.0025 9.7589 10.8821C9.72637 10.7617 9.64734 10.6591 9.53918 10.5969L7.2048 9.2516C7.15161 9.22032 7.09275 9.19986 7.03162 9.19142C6.97049 9.18297 6.90829 9.18669 6.8486 9.20238C6.78892 9.21806 6.73292 9.2454 6.68384 9.2828C6.63476 9.32021 6.59356 9.36696 6.56261 9.42035C6.50131 9.5287 6.48514 9.65684 6.5176 9.77702C6.55006 9.89721 6.62854 9.99978 6.73605 10.0625Z" fill="#212121"/>
<path d="M9.71246 14.0515C9.6497 13.944 9.54713 13.8655 9.42694 13.833C9.30676 13.8006 9.17863 13.8167 9.07027 13.878L6.7359 15.228C6.62849 15.2906 6.55019 15.3931 6.51812 15.5132C6.48606 15.6333 6.50282 15.7612 6.56475 15.8689C6.62668 15.9767 6.72875 16.0555 6.84865 16.0883C6.96855 16.121 7.09654 16.105 7.20465 16.0437L9.53902 14.6937C9.64654 14.6309 9.72502 14.5283 9.75748 14.4082C9.78994 14.288 9.77376 14.1598 9.71246 14.0515Z" fill="#212121"/>
<path d="M12.1453 15.4578C12.0211 15.4581 11.902 15.5076 11.8142 15.5955C11.7264 15.6833 11.6769 15.8023 11.6765 15.9265V18.6218C11.6765 18.7461 11.7259 18.8654 11.8138 18.9533C11.9017 19.0412 12.0209 19.0906 12.1453 19.0906C12.2696 19.0906 12.3888 19.0412 12.4767 18.9533C12.5646 18.8654 12.614 18.7461 12.614 18.6218V15.9265C12.6137 15.8023 12.5642 15.6833 12.4763 15.5955C12.3885 15.5076 12.2695 15.4581 12.1453 15.4578Z" fill="#212121"/>
<path d="M17.5594 15.2282L15.225 13.8782C15.1169 13.8173 14.9891 13.8016 14.8695 13.8344C14.7499 13.8673 14.6481 13.9461 14.5862 14.0536C14.5244 14.1612 14.5076 14.2888 14.5394 14.4087C14.5713 14.5286 14.6492 14.6311 14.7562 14.6938L17.0906 16.0438C17.1442 16.0746 17.2033 16.0945 17.2645 16.1025C17.3258 16.1104 17.388 16.1062 17.4476 16.0901C17.5073 16.074 17.5631 16.0463 17.6121 16.0086C17.661 15.9709 17.702 15.924 17.7328 15.8704C17.7636 15.8168 17.7835 15.7578 17.7914 15.6965C17.7994 15.6352 17.7952 15.573 17.7791 15.5134C17.763 15.4538 17.7353 15.3979 17.6976 15.3489C17.6599 15.3 17.6129 15.259 17.5594 15.2282Z" fill="#212121"/>
<path d="M17.0907 9.24688L14.7563 10.5969C14.6675 10.649 14.5982 10.7289 14.5591 10.8241C14.5201 10.9194 14.5133 11.0249 14.5399 11.1243C14.5665 11.2238 14.625 11.3119 14.7064 11.3749C14.7878 11.438 14.8877 11.4726 14.9907 11.4734C15.0727 11.4738 15.1535 11.4528 15.225 11.4125L17.5594 10.0625C17.6676 10.0003 17.7466 9.89776 17.7791 9.77733C17.8117 9.6569 17.795 9.52848 17.7328 9.42032C17.7021 9.36676 17.661 9.31979 17.6121 9.28209C17.5632 9.2444 17.5073 9.2167 17.4477 9.2006C17.3272 9.16807 17.1988 9.18472 17.0907 9.24688Z" fill="#212121"/>
<path d="M23.9062 6.59375H24.8438C24.9681 6.59375 25.0873 6.54436 25.1752 6.45646C25.2631 6.36855 25.3125 6.24932 25.3125 6.125C25.3125 6.00068 25.2631 5.88145 25.1752 5.79354C25.0873 5.70564 24.9681 5.65625 24.8438 5.65625H23.9062C23.7819 5.65625 23.6627 5.70564 23.5748 5.79354C23.4869 5.88145 23.4375 6.00068 23.4375 6.125C23.4375 6.24932 23.4869 6.36855 23.5748 6.45646C23.6627 6.54436 23.7819 6.59375 23.9062 6.59375Z" fill="#212121"/>
<path d="M25.7813 6.59375C25.7197 6.59371 25.6587 6.60582 25.6018 6.62936C25.5449 6.6529 25.4932 6.68743 25.4497 6.73097C25.4062 6.7745 25.3717 6.82619 25.3481 6.88308C25.3246 6.93996 25.3125 7.00093 25.3125 7.0625V8C25.3125 8.12432 25.3619 8.24355 25.4498 8.33146C25.5377 8.41936 25.6569 8.46875 25.7813 8.46875C25.9056 8.46875 26.0248 8.41936 26.1127 8.33146C26.2006 8.24355 26.25 8.12432 26.25 8V7.0625C26.25 7.00093 26.2379 6.93996 26.2144 6.88308C26.1908 6.82619 26.1563 6.7745 26.1128 6.73097C26.0693 6.68743 26.0176 6.6529 25.9607 6.62936C25.9038 6.60582 25.8428 6.59371 25.7813 6.59375Z" fill="#212121"/>
<path d="M26.7188 6.59375H27.6562C27.7806 6.59375 27.8998 6.54436 27.9877 6.45646C28.0756 6.36855 28.125 6.24932 28.125 6.125C28.125 6.00068 28.0756 5.88145 27.9877 5.79354C27.8998 5.70564 27.7806 5.65625 27.6562 5.65625H26.7188C26.5944 5.65625 26.4752 5.70564 26.3873 5.79354C26.2994 5.88145 26.25 6.00068 26.25 6.125C26.25 6.24932 26.2994 6.36855 26.3873 6.45646C26.4752 6.54436 26.5944 6.59375 26.7188 6.59375Z" fill="#212121"/>
<path d="M25.7813 5.65625C25.8428 5.65629 25.9038 5.64418 25.9607 5.62064C26.0176 5.5971 26.0693 5.56257 26.1128 5.51903C26.1563 5.4755 26.1908 5.42381 26.2144 5.36692C26.2379 5.31004 26.25 5.24907 26.25 5.1875V4.25C26.25 4.12568 26.2006 4.00645 26.1127 3.91854C26.0248 3.83064 25.9056 3.78125 25.7813 3.78125C25.6569 3.78125 25.5377 3.83064 25.4498 3.91854C25.3619 4.00645 25.3125 4.12568 25.3125 4.25V5.1875C25.3125 5.24907 25.3246 5.31004 25.3481 5.36692C25.3717 5.42381 25.4062 5.4755 25.4497 5.51903C25.4932 5.56257 25.5449 5.5971 25.6018 5.62064C25.6587 5.64418 25.7197 5.65629 25.7813 5.65625Z" fill="#212121"/>
<path d="M3.28125 24.4062H2.34375C2.21943 24.4062 2.1002 24.4556 2.01229 24.5435C1.92439 24.6315 1.875 24.7507 1.875 24.875C1.875 24.9993 1.92439 25.1185 2.01229 25.2065C2.1002 25.2944 2.21943 25.3438 2.34375 25.3438H3.28125C3.40557 25.3438 3.5248 25.2944 3.61271 25.2065C3.70061 25.1185 3.75 24.9993 3.75 24.875C3.75 24.7507 3.70061 24.6315 3.61271 24.5435C3.5248 24.4556 3.40557 24.4062 3.28125 24.4062Z" fill="#212121"/>
<path d="M4.21875 25.3438C4.15718 25.3437 4.09621 25.3558 4.03933 25.3794C3.98244 25.4029 3.93075 25.4374 3.88722 25.481C3.84368 25.5245 3.80915 25.5762 3.78561 25.6331C3.76207 25.69 3.74996 25.7509 3.75 25.8125V26.75C3.75 26.8743 3.79939 26.9935 3.88729 27.0815C3.9752 27.1694 4.09443 27.2188 4.21875 27.2188C4.34307 27.2188 4.4623 27.1694 4.55021 27.0815C4.63811 26.9935 4.6875 26.8743 4.6875 26.75V25.8125C4.68754 25.7509 4.67543 25.69 4.65189 25.6331C4.62835 25.5762 4.59382 25.5245 4.55028 25.481C4.50675 25.4374 4.45506 25.4029 4.39817 25.3794C4.34129 25.3558 4.28032 25.3437 4.21875 25.3438Z" fill="#212121"/>
<path d="M6.09375 24.4062H5.15625C5.03193 24.4062 4.9127 24.4556 4.82479 24.5435C4.73689 24.6315 4.6875 24.7507 4.6875 24.875C4.6875 24.9993 4.73689 25.1185 4.82479 25.2065C4.9127 25.2944 5.03193 25.3438 5.15625 25.3438H6.09375C6.21807 25.3438 6.3373 25.2944 6.42521 25.2065C6.51311 25.1185 6.5625 24.9993 6.5625 24.875C6.5625 24.7507 6.51311 24.6315 6.42521 24.5435C6.3373 24.4556 6.21807 24.4062 6.09375 24.4062Z" fill="#212121"/>
<path d="M4.21875 24.4062C4.28032 24.4063 4.34129 24.3942 4.39817 24.3706C4.45506 24.3471 4.50675 24.3126 4.55028 24.269C4.59382 24.2255 4.62835 24.1738 4.65189 24.1169C4.67543 24.06 4.68754 23.9991 4.6875 23.9375V23C4.6875 22.8757 4.63811 22.7565 4.55021 22.6685C4.4623 22.5806 4.34307 22.5312 4.21875 22.5312C4.09443 22.5312 3.9752 22.5806 3.88729 22.6685C3.79939 22.7565 3.75 22.8757 3.75 23V23.9375C3.74996 23.9991 3.76207 24.06 3.78561 24.1169C3.80915 24.1738 3.84368 24.2255 3.88722 24.269C3.93075 24.3126 3.98244 24.3471 4.03933 24.3706C4.09621 24.3942 4.15718 24.4063 4.21875 24.4062Z" fill="#212121"/>
</svg>
