<svg width="38" height="39" viewBox="0 0 38 39" fill="none" xmlns="http://www.w3.org/2000/svg">
<path d="M11.8749 24.468C10.0307 24.468 8.53613 25.962 8.53613 27.8064C8.53613 29.6509 10.0307 31.1449 11.8749 31.1449C13.7198 31.1449 15.214 29.6509 15.214 27.8064C15.214 25.962 13.7198 24.468 11.8749 24.468ZM11.8749 29.2578C11.0732 29.2578 10.4236 28.6081 10.4236 27.8064C10.4236 27.0044 11.0732 26.355 11.8749 26.355C12.6767 26.355 13.3268 27.0044 13.3268 27.8064C13.3268 28.6081 12.6767 29.2578 11.8749 29.2578Z" fill="white"/>
<path d="M29.481 24.468C27.6368 24.468 26.1423 25.962 26.1423 27.8064C26.1423 29.6509 27.6368 31.1449 29.481 31.1449C31.326 31.1449 32.8201 29.6509 32.8201 27.8064C32.8201 25.962 31.326 24.468 29.481 24.468ZM29.481 29.2578C28.6793 29.2578 28.0298 28.6081 28.0298 27.8064C28.0298 27.0044 28.6793 26.355 29.481 26.355C30.2829 26.355 30.933 27.0044 30.933 27.8064C30.933 28.6081 30.2829 29.2578 29.481 29.2578Z" fill="white"/>
<path d="M15.6311 14.2097C15.6311 14.6775 15.2483 15.0602 14.7806 15.0602H3.04333C2.5755 15.0602 2.19287 14.6775 2.19287 14.2097V13.6993C2.19287 13.2316 2.5756 12.8489 3.04333 12.8489H14.7806C15.2484 12.8489 15.6311 13.2316 15.6311 13.6993V14.2097Z" fill="white"/>
<path d="M36.0233 19.1894C34.7991 18.8711 34.0985 18.671 33.6178 17.7426L32.0104 14.4881C31.5295 13.5598 30.2806 12.8001 29.2353 12.8001H27.0368C27.0368 12.8001 26.741 12.8063 26.741 12.5086C26.741 11.8262 26.741 9.77913 26.741 9.77913C26.741 8.721 26.1422 7.85522 24.8685 7.85522H6.95058C5.12701 7.85522 4.26123 8.7211 4.26123 9.77913V11.4897C4.26123 11.4897 4.26123 11.9984 4.75363 11.9984C7.26035 11.9984 14.7806 11.9984 14.7806 11.9984C15.7186 11.9984 16.4817 12.7614 16.4817 13.6994V14.2097C16.4817 15.1477 15.7186 15.9108 14.7806 15.9108H4.75363C4.75363 15.9108 4.26123 15.8698 4.26123 16.4014C4.26123 16.6654 4.26123 16.8426 4.26123 16.9896C4.26123 17.4574 4.90244 17.4572 4.90244 17.4572H11.6521C12.5901 17.4572 13.3532 18.2203 13.3532 19.1582V19.6685C13.3532 20.6065 12.5901 21.3695 11.6521 21.3695H5.00893C5.00893 21.3695 4.26123 21.3557 4.26123 21.951C4.26123 22.9844 4.26123 26.0843 4.26123 26.0843C4.26123 27.1423 5.12701 28.0082 6.18513 28.0082C6.18513 28.0082 6.98216 28.0082 7.24783 28.0082C7.48884 28.0082 7.52434 27.874 7.52434 27.8065C7.52434 25.4077 9.47617 23.4563 11.8751 23.4563C14.2742 23.4563 16.2259 25.4079 16.2259 27.8065C16.2259 27.8743 16.2067 28.0082 16.391 28.0082C18.4975 28.0082 24.9671 28.0082 24.9671 28.0082C25.1372 28.0082 25.1303 27.8649 25.1303 27.8065C25.1303 25.4077 27.082 23.4563 29.481 23.4563C31.88 23.4563 33.8318 25.4079 33.8318 27.8065C33.8318 27.8743 33.8301 28.0082 33.9365 28.0082C34.9024 28.0082 36.0987 28.0082 36.0987 28.0082C37.1445 28.0082 37.9999 27.1528 37.9999 26.1071V22.4953C38 19.4536 37.0396 19.4536 36.0233 19.1894ZM32.4056 19.0202C32.4056 19.0202 28.3682 19.0202 26.9942 19.0202C26.7706 19.0202 26.7409 18.8025 26.7409 18.8025V14.2948C26.7409 14.2948 26.7283 14.1217 27.0154 14.1217C27.4015 14.1217 28.5595 14.1217 28.5595 14.1217C29.4898 14.1217 30.6011 14.7976 31.0288 15.6237L32.4592 18.5196C32.5194 18.6362 32.5838 18.7397 32.6528 18.8324C32.7036 18.9004 32.6184 19.0202 32.4056 19.0202Z" fill="white"/>
<path d="M12.5026 19.6684C12.5026 20.1362 12.1199 20.519 11.6521 20.519H0.850458C0.382632 20.519 0 20.1362 0 19.6684V19.1581C0 18.6903 0.382725 18.3076 0.850458 18.3076H11.6521C12.12 18.3076 12.5026 18.6903 12.5026 19.1581V19.6684Z" fill="white"/>
</svg>
