<svg width="20" height="20" viewBox="0 0 20 20" fill="none" xmlns="http://www.w3.org/2000/svg">
<path d="M18.8998 1.10016C18.1666 0.366766 17.2832 0 16.2503 0H3.75022C2.71733 0 1.83394 0.366766 1.1004 1.10016C0.36701 1.83369 0.000244141 2.71704 0.000244141 3.74998V16.2499C0.000244141 17.2828 0.36701 18.1662 1.1004 18.8997C1.83394 19.6333 2.71733 20 3.75022 20H16.2502C17.2831 20 18.1665 19.6333 18.8997 18.8997C19.6332 18.1662 20 17.2828 20 16.2499V3.74998C19.9999 2.71704 19.6332 1.83356 18.8998 1.10016ZM15.2997 7.69538C15.3084 7.7735 15.3128 7.89048 15.3128 8.047C15.3128 8.7762 15.2064 9.50754 14.9938 10.2408C14.7812 10.9745 14.4557 11.6776 14.0171 12.3503C13.579 13.023 13.056 13.6178 12.4484 14.1342C11.8407 14.6505 11.1117 15.063 10.2608 15.3709C9.41033 15.6793 8.4987 15.8335 7.52656 15.8335C6.01626 15.8335 4.6187 15.4252 3.33393 14.6096C3.54226 14.6355 3.75939 14.6486 3.98496 14.6486C5.24369 14.6486 6.3765 14.258 7.38349 13.4765C6.7933 13.4681 6.26586 13.2859 5.8015 12.9297C5.337 12.5738 5.01374 12.1225 4.83141 11.5756C5.05702 11.6102 5.22627 11.6274 5.3391 11.6274C5.53005 11.6274 5.75147 11.5928 6.00313 11.5235C5.36947 11.4018 4.8357 11.0874 4.40166 10.5796C3.96754 10.0717 3.75054 9.49231 3.75054 8.84133V8.81529C4.21048 9.03214 4.64452 9.14497 5.05255 9.15378C4.26261 8.62415 3.86766 7.86471 3.86766 6.87515C3.86766 6.38899 3.99344 5.92895 4.24519 5.49492C4.93088 6.33699 5.76438 7.00964 6.74514 7.51309C7.726 8.01649 8.77644 8.29875 9.89617 8.35945C9.85284 8.19454 9.83109 7.98612 9.83109 7.73446C9.83109 6.97913 10.098 6.33471 10.6319 5.8008C11.1657 5.26693 11.8103 4.99991 12.5654 4.99991C13.3642 4.99991 14.0284 5.28645 14.5578 5.8594C15.1568 5.74657 15.7387 5.52511 16.3027 5.19538C16.0858 5.8636 15.6819 6.37147 15.0919 6.71872C15.6559 6.64046 16.1809 6.49297 16.667 6.27597C16.3024 6.8315 15.8466 7.30458 15.2997 7.69538Z" fill="#212121"/>
</svg>
