<svg width="20" height="20" viewBox="0 0 20 20" fill="none" xmlns="http://www.w3.org/2000/svg">
<g id="X">
<path id="Subtract" fill-rule="evenodd" clip-rule="evenodd" d="M5 0C2.23858 0 0 2.23858 0 5V15C0 17.7614 2.23858 20 5 20H15C17.7614 20 20 17.7614 20 15V5C20 2.23858 17.7614 0 15 0H5ZM11.5664 8.83536L17.1895 17.0312H12.746L9.09661 11.7118L4.50481 17.0312H2.81055L8.34729 10.62L8.34792 10.6207L3.09825 2.96875H7.5417L10.8216 7.75L14.9517 2.96875H16.646L11.576 8.84304L11.5664 8.83536ZM14.7599 15.7528L6.87039 4.24715H5.52139L13.4173 15.7528H14.7599Z" fill="#212121"/>
</g>
</svg>
