<svg
                    xmlns="http://www.w3.org/2000/svg"
                    width="51"
                    height="50"
                    viewBox="0 0 51 50"
                    fill="none">
                    <path d="M25.5 31.25C28.9518 31.25 31.75 28.4518 31.75 25C31.75 21.5482 28.9518 18.75 25.5 18.75C22.0482 18.75 19.25 21.5482 19.25 25C19.25 28.4518 22.0482 31.25 25.5 31.25Z" fill="white"></path>
                    <path d="M48.8436 24.4688C47.0058 19.7151 43.8154 15.6041 39.6667 12.6439C35.518 9.68368 30.5928 8.00402 25.4998 7.8125C20.4069 8.00402 15.4817 9.68368 11.333 12.6439C7.18422 15.6041 3.99382 19.7151 2.15607 24.4688C2.03196 24.812 2.03196 25.188 2.15607 25.5312C3.99382 30.2849 7.18422 34.3959 11.333 37.3561C15.4817 40.3163 20.4069 41.996 25.4998 42.1875C30.5928 41.996 35.518 40.3163 39.6667 37.3561C43.8154 34.3959 47.0058 30.2849 48.8436 25.5312C48.9677 25.188 48.9677 24.812 48.8436 24.4688ZM25.4998 35.1562C23.4911 35.1562 21.5275 34.5606 19.8573 33.4446C18.1871 32.3286 16.8854 30.7424 16.1167 28.8866C15.348 27.0308 15.1468 24.9887 15.5387 23.0186C15.9306 21.0485 16.8979 19.2388 18.3183 17.8184C19.7386 16.3981 21.5483 15.4308 23.5184 15.0389C25.4886 14.647 27.5306 14.8481 29.3865 15.6168C31.2423 16.3856 32.8285 17.6873 33.9444 19.3575C35.0604 21.0277 35.6561 22.9913 35.6561 25C35.6519 27.6923 34.5806 30.2732 32.6768 32.177C30.773 34.0808 28.1922 35.1521 25.4998 35.1562Z" fill="white"></path>
                </svg>