<svg width="30" height="31" viewBox="0 0 30 31" fill="none" xmlns="http://www.w3.org/2000/svg">
<g clip-path="url(#clip0_3639_14705)">
<g clip-path="url(#clip1_3639_14705)">
<path d="M27.8738 3.71903C26.4562 2.33486 24.4978 1.64307 21.9975 1.64307C21.3056 1.64307 20.5995 1.76304 19.8798 2.00286C19.1598 2.24286 18.49 2.56665 17.8711 2.974C17.2514 3.38123 16.7189 3.76365 16.2721 4.12069C15.8259 4.47785 15.4017 4.8574 15 5.25906C14.5981 4.8574 14.174 4.47785 13.7277 4.12069C13.2811 3.76365 12.7483 3.38146 12.1288 2.974C11.5093 2.56647 10.8397 2.24292 10.1198 2.00286C9.40007 1.7631 8.69403 1.64307 8.00212 1.64307C5.50204 1.64307 3.54346 2.33504 2.1261 3.71903C0.708739 5.10291 0 7.02243 0 9.47778C0 10.2256 0.131346 10.9958 0.393509 11.7879C0.655673 12.5804 0.954426 13.2557 1.28918 13.8136C1.62388 14.3715 2.00343 14.9157 2.42755 15.4459C2.85167 15.976 3.16162 16.3412 3.3567 16.5423C3.55196 16.743 3.70547 16.8882 3.81706 16.9773L14.2633 27.0555C14.4643 27.2566 14.7098 27.3572 14.9999 27.3572C15.29 27.3572 15.5357 27.2566 15.7366 27.0559L26.1662 17.0111C28.7221 14.4555 29.9999 11.9443 29.9999 9.47778C29.9999 7.02243 29.2911 5.10291 27.8738 3.71903Z" fill="white"/>
</g>
</g>
<defs>
<clipPath id="clip0_3639_14705">
<rect width="30" height="30" fill="white" transform="translate(0 0.5)"/>
</clipPath>
<clipPath id="clip1_3639_14705">
<rect width="29.9999" height="30" fill="white" transform="translate(0 -0.5)"/>
</clipPath>
</defs>
</svg>
