<svg width="20" height="20" viewBox="0 0 20 20" fill="none" xmlns="http://www.w3.org/2000/svg">
<g clip-path="url(#clip0_3639_2858)">
<path d="M8.71436 8.03174V11.6825L12.0794 9.87301L8.71436 8.03174Z" fill="#212121"/>
<path d="M14.9841 0H5C2.25397 0 0 2.25397 0 5.01587V15C0 17.746 2.25397 20 5 20H14.9841C17.746 20 20 17.746 20 14.9841V5.01587C20 2.25397 17.746 0 14.9841 0ZM16.1905 10.4921C16.1905 11.5397 16.0952 12.6032 16.0952 12.6032C16.0952 12.6032 15.9841 13.4921 15.619 13.8889C15.1429 14.4127 14.619 14.4127 14.381 14.4444C12.6349 14.5714 10.0159 14.5873 10.0159 14.5873C10.0159 14.5873 6.7619 14.5397 5.7619 14.4444C5.49206 14.3968 4.85714 14.4127 4.38095 13.8889C4 13.4921 3.90476 12.6032 3.90476 12.6032C3.90476 12.6032 3.80952 11.5397 3.80952 10.4921V9.50794C3.80952 8.46032 3.90476 7.39683 3.90476 7.39683C3.90476 7.39683 4.01587 6.50794 4.38095 6.11111C4.85714 5.5873 5.38095 5.57143 5.61905 5.53968C7.38095 5.4127 10 5.39683 10 5.39683C10 5.39683 12.619 5.4127 14.3651 5.53968C14.6032 5.57143 15.1429 5.5873 15.619 6.09524C16 6.49206 16.0952 7.39683 16.0952 7.39683C16.0952 7.39683 16.1905 8.46032 16.1905 9.50794V10.4921Z" fill="#212121"/>
</g>
<defs>
<clipPath id="clip0_3639_2858">
<rect width="20" height="20" fill="white"/>
</clipPath>
</defs>
</svg>
