<svg width="40" height="40" viewBox="0 0 40 40" fill="none" xmlns="http://www.w3.org/2000/svg">
<g id="Vector">
<path d="M37.4414 2.33549H39.919V4.67098H37.4414V2.33549Z" fill="white"/>
<path d="M34.9502 0H37.4278V2.33549H34.9502V0Z" fill="white"/>
<path d="M2.41361 37.5551H4.7491V39.8906H2.41361V37.5551Z" fill="white"/>
<path d="M2.49146 29.7702H4.82695V32.1057H2.49146V29.7702Z" fill="white"/>
<path d="M0.078125 35.2196H2.41361V37.5551H0.078125V35.2196Z" fill="white"/>
<path d="M23.6158 20.0102L25.2735 18.3025L22.9288 17.8952L23.266 15.5393L21.1294 16.588L20.0175 14.4838L18.9055 16.588L16.7692 15.5393L17.1065 17.8952L14.7617 18.3026L16.4192 20.0102L14.7616 21.718L17.1065 22.1253L16.7692 24.4812L18.9055 23.4325L20.0175 25.5367L21.1294 23.4325L23.266 24.4813L22.9288 22.1253L25.2735 21.718L23.6158 20.0102Z" fill="white"/>
<path d="M30.5475 12.3599L31.7672 3.83822L24.0396 7.6316L20.0176 0.0205523L15.9955 7.6316L8.26791 3.83814L9.48765 12.3598L1.00625 13.8331L7.00192 20.0102L1.00625 26.1875L9.48765 27.6608L8.26791 36.1824L15.9955 32.389L20.0176 40L24.0397 32.389L31.7673 36.1823L30.5475 27.6608L39.0289 26.1875L33.0332 20.0102L39.0289 13.8331L30.5475 12.3599ZM26.204 28.5254L22.1353 26.528L20.0175 30.5354L17.8998 26.528L13.831 28.5253L14.4733 24.0384L10.0075 23.2626L13.1644 20.0102L10.0076 16.7579L14.4733 15.9821L13.831 11.4953L17.8998 13.4926L20.0175 9.48512L22.1353 13.4926L26.204 11.4952L25.5618 15.9821L30.0274 16.7578L26.8705 20.0102L30.0277 23.2626L25.5618 24.0384L26.204 28.5254Z" fill="white"/>
</g>
</svg>
