<svg width="40" height="40" viewBox="0 0 40 40" fill="none" xmlns="http://www.w3.org/2000/svg">
<g id="Vector">
<path d="M27.5824 19.0836C27.8363 19.1101 28.0858 18.9875 28.2149 18.7651C28.3435 18.5424 28.3274 18.2649 28.1743 18.0582L26.0908 15.2476C25.5473 14.5145 25.5473 13.5298 26.0908 12.7967L28.1743 9.98613C28.3274 9.77948 28.3435 9.50194 28.2149 9.27923C28.0858 9.05682 27.8372 8.93081 27.5824 8.96074L24.1064 9.35987C23.1995 9.46603 22.347 8.97145 21.9841 8.13445L20.5918 4.92471C20.4894 4.68876 20.2569 4.53629 19.9998 4.53629C19.7428 4.53629 19.5103 4.68876 19.4079 4.92471L18.0155 8.13445C17.6526 8.97145 16.7977 9.46541 15.8932 9.35987L12.4173 8.96074C12.1593 8.92987 11.9133 9.05619 11.7847 9.27923C11.6562 9.50194 11.6723 9.77948 11.8254 9.98613L13.9089 12.7967C14.4523 13.5298 14.4523 14.5145 13.9089 15.2476L11.8254 18.0582C11.6723 18.2649 11.6562 18.5424 11.7847 18.7651C11.9136 18.9878 12.1599 19.1107 12.4173 19.0836L15.8932 18.6845C16.8005 18.5774 17.6523 19.0729 18.0155 19.9099L19.4079 23.1196C19.5103 23.3556 19.7428 23.508 19.9998 23.508C20.2569 23.508 20.4894 23.3556 20.5918 23.1196L21.9841 19.9099C22.347 19.0729 23.2026 18.5799 24.1064 18.6845L27.5824 19.0836Z" fill="#BF2126"/>
<path d="M24.2145 7.70129C24.2955 7.73531 24.3808 7.75201 24.4656 7.75201C24.6332 7.75201 24.7982 7.68648 24.9217 7.56299C28.466 4.01807 34.1735 5.07717 34.2309 5.08883C34.4949 5.13797 34.761 5.02299 34.9025 4.79586C35.0436 4.56842 35.0301 4.27765 34.8678 4.0647C34.7415 3.89869 31.728 0 28.0039 0C23.9666 0 23.8245 6.8079 23.8204 7.09771C23.8166 7.36044 23.9726 7.59891 24.2145 7.70129Z" fill="#BF2126"/>
<path d="M39.9809 11.4381C39.389 9.04075 38.283 7.58694 36.6937 7.11756C33.5155 6.17817 29.7182 9.70198 29.5582 9.85224C29.3427 10.0545 29.2923 10.3771 29.4356 10.6354C29.5787 10.8937 29.8782 11.0222 30.1646 10.9463C35.0704 9.64906 38.965 12.1094 39.004 12.1342C39.1108 12.2032 39.2327 12.2373 39.3544 12.2373C39.4857 12.2373 39.6174 12.1973 39.7289 12.1176C39.9441 11.9638 40.0442 11.6948 39.9809 11.4381Z" fill="#BF2126"/>
<path d="M19.4205 25.6032C19.3355 25.7765 17.3386 29.8916 17.3386 33.4677C17.3386 37.127 19.4158 39.6616 19.5043 39.7678C19.6269 39.9149 19.8083 40 19.9998 40C20.1914 40 20.3728 39.9149 20.4954 39.7678C20.5839 39.6616 22.6611 37.127 22.6611 33.4677C22.6611 29.8916 20.6642 25.7765 20.5792 25.6032C20.3624 25.161 19.6373 25.161 19.4205 25.6032Z" fill="#BF2126"/>
<path d="M5.76881 5.08883C5.82552 5.0778 11.5327 4.01807 15.078 7.56299C15.2015 7.68648 15.3665 7.75201 15.5341 7.75201C15.6189 7.75201 15.7042 7.73531 15.7852 7.70129C16.0271 7.59891 16.1831 7.36044 16.1793 7.09771C16.1752 6.80789 16.0331 0 11.9958 0C8.27164 0 5.25816 3.89869 5.13184 4.0647C4.96961 4.27765 4.95606 4.56842 5.09719 4.79586C5.23863 5.02331 5.50577 5.13986 5.76881 5.08883Z" fill="#BF2126"/>
<path d="M9.83509 10.9463C10.1196 11.0206 10.4207 10.8937 10.564 10.6354C10.7074 10.3771 10.657 10.0545 10.4415 9.85224C10.2818 9.7023 6.48486 6.17817 3.30599 7.11756C1.71671 7.58694 0.610681 9.04075 0.0187589 11.4381C-0.0445571 11.6948 0.055617 11.9638 0.270778 12.1176C0.38261 12.1973 0.513655 12.2373 0.645339 12.2373C0.766939 12.2373 0.888849 12.2032 0.995642 12.1342C1.03471 12.1094 4.92898 9.64874 9.83509 10.9463Z" fill="#BF2126"/>
<path d="M2.31934 22.0964C2.40692 21.8586 4.54212 16.2547 11.3872 15.0097C11.6622 14.9597 11.8736 14.7385 11.9111 14.4616C11.9489 14.1847 11.8037 13.9151 11.552 13.7938C11.3721 13.7071 7.10828 11.6916 4.00785 13.7012C1.94006 15.0416 0.951216 17.798 1.06872 21.8936C1.07754 22.2026 1.30467 22.4612 1.60993 22.511C1.9092 22.5616 2.21358 22.3878 2.31934 22.0964Z" fill="#BF2126"/>
<path d="M14.274 22.5201C14.5667 22.5201 14.8225 22.3233 14.8975 22.0404C14.9728 21.7578 14.848 21.4598 14.5941 21.3149C14.3966 21.2024 9.71129 18.5739 6.05108 20.6417C3.54258 22.0593 2.21193 25.2841 2.09694 30.2268C2.08938 30.5412 2.3099 30.8146 2.61831 30.8748C2.92052 30.9355 3.23488 30.7652 3.34537 30.4697C3.46823 30.1449 6.44517 22.5201 14.274 22.5201Z" fill="#BF2126"/>
<path d="M15.5036 24.7259C15.4068 24.7306 5.80819 25.3055 3.88185 35.6073C3.84247 35.8171 3.90989 36.0329 4.06141 36.1835C4.21281 36.3347 4.43116 36.3996 4.63884 36.3593C4.99072 36.2909 13.294 34.5848 16.1494 25.5651C16.213 25.3638 16.1742 25.1443 16.0454 24.977C15.9166 24.8097 15.7086 24.7168 15.5036 24.7259Z" fill="#BF2126"/>
<path d="M14.1679 32.7507C14.1235 32.758 9.71255 33.5619 10.2443 39.4131C10.2616 39.6024 10.3612 39.7741 10.5168 39.8831C10.6725 39.9924 10.8691 40.0271 11.0514 39.9786C11.2095 39.937 14.9192 38.8952 14.9192 33.3871C14.9192 33.1974 14.8357 33.0172 14.6911 32.8947C14.5462 32.7725 14.3537 32.7192 14.1679 32.7507Z" fill="#BF2126"/>
<path d="M35.9918 13.7012C32.8914 11.6916 28.6276 13.7071 28.4477 13.7938C28.196 13.9151 28.0508 14.1847 28.0886 14.4616C28.1261 14.7385 28.3375 14.9597 28.6125 15.0097C35.4576 16.2547 37.5928 21.8586 37.6803 22.0964C37.7861 22.3878 38.0905 22.5616 38.3898 22.511C38.695 22.4612 38.9221 22.2026 38.931 21.8936C39.0485 17.798 38.0596 15.0416 35.9918 13.7012Z" fill="#BF2126"/>
<path d="M33.9486 20.6417C30.2884 18.5739 25.6031 21.2024 25.4056 21.3149C25.1517 21.4598 25.0269 21.7578 25.1022 22.0404C25.1772 22.3233 25.433 22.5201 25.7256 22.5201C33.5545 22.5201 36.5315 30.1449 36.6543 30.4697C36.7648 30.7652 37.0792 30.9355 37.3814 30.8748C37.6898 30.8146 37.9103 30.5412 37.9027 30.2268C37.7878 25.2841 36.4571 22.0593 33.9486 20.6417Z" fill="#BF2126"/>
<path d="M24.4961 24.7259C24.291 24.7168 24.0831 24.8097 23.9543 24.977C23.8254 25.1443 23.7867 25.3638 23.8503 25.5651C26.7057 34.5848 35.009 36.2909 35.3608 36.3593C35.5685 36.3996 35.7869 36.3347 35.9383 36.1835C36.0898 36.0329 36.1572 35.8171 36.1178 35.6073C34.1915 25.3055 24.5928 24.7306 24.4961 24.7259Z" fill="#BF2126"/>
<path d="M25.8318 32.7507C25.6459 32.7192 25.4535 32.7725 25.3086 32.8947C25.164 33.0172 25.0805 33.1974 25.0805 33.3871C25.0805 38.8952 28.7901 39.937 28.9483 39.9785C29.1305 40.0271 29.3271 39.9924 29.4829 39.8831C29.6385 39.7741 29.738 39.6024 29.7554 39.4131C30.2871 33.5619 25.8762 32.758 25.8318 32.7507Z" fill="#BF2126"/>
</g>
</svg>
