<svg width="40" height="40" viewBox="0 0 40 40" fill="none" xmlns="http://www.w3.org/2000/svg">
<g id="water-gun 1">
<g id="Group">
<path id="Vector" d="M1.61719 6.12322V19.5699C1.61719 19.9539 2.03833 20.189 2.36516 19.9875L8.02951 16.4963V9.1968L2.36515 5.70559C2.03833 5.50411 1.61719 5.73919 1.61719 6.12322Z" fill="#BF2126"/>
<path id="Vector_2" d="M32.7059 26.7402C31.5585 26.7402 30.625 27.6737 30.625 28.8209C30.625 29.964 31.5585 30.8941 32.7059 30.8941C33.8531 30.8941 34.7866 29.964 34.7866 28.8209C34.7866 27.6737 33.8531 26.7402 32.7059 26.7402Z" fill="#BF2126"/>
<path id="Vector_3" d="M35.6239 18.3014C35.618 18.3073 35.6062 18.3132 35.5945 18.3132L33.8003 18.725C33.5119 18.7731 33.3187 18.5986 33.271 18.3956C33.2121 18.1544 33.3651 17.9191 33.6004 17.8662C34.7523 17.5827 36.7708 17.3621 37.8827 15.6544C38.8415 14.1721 37.6886 12.2132 35.9239 12.2132H32.418V10.0511H35.0411V10.4142C35.0411 10.6578 35.2387 10.8554 35.4823 10.8554C35.7258 10.8554 35.9234 10.6578 35.9234 10.4142V8.63857C35.9234 8.39501 35.7258 8.19739 35.4823 8.19739C35.2387 8.19739 35.0411 8.39501 35.0411 8.63857V9.16879H32.418V8.81321C32.418 7.81324 31.6062 7.00146 30.6003 7.00146H13.3356C12.5722 7.00146 11.9533 7.62036 11.9533 8.38381V9.19557H8.91211V16.4956H11.9533V17.1133C11.9533 17.8767 12.5721 18.4955 13.3355 18.4955H18.9896C18.7516 19.093 18.6239 19.7354 18.6239 20.3895C18.6239 23.1985 20.9091 25.4837 23.7178 25.4837C24.2996 25.4837 24.8605 25.3869 25.3941 25.2002C28.1147 35.9218 33.7768 34.2779 33.7768 34.2779C41.918 33.5721 37.0827 21.5367 35.6239 18.3014ZM19.5063 20.3895C19.5063 19.7157 19.6556 19.0798 19.9509 18.4955H23.5048C23.1647 20.1224 22.5441 21.1821 21.5539 21.8072C21.348 21.9371 21.2862 22.2093 21.4163 22.4156C21.5465 22.6215 21.8196 22.6833 22.0249 22.5529C23.1938 21.8149 23.929 20.6253 24.3302 18.8441C24.5407 20.941 24.8344 22.7617 25.1863 24.3362C24.7213 24.5102 24.2298 24.6013 23.7178 24.6013C21.3956 24.6013 19.5063 22.712 19.5063 20.3895ZM29.6895 15.6664C29.6895 16.1512 29.2952 16.5453 28.8106 16.5453H15.0121C14.5275 16.5453 14.1332 16.1512 14.1332 15.6664V10.0264C14.1332 9.54161 14.5275 9.14696 15.0121 9.14696H28.8106C29.2952 9.14696 29.6895 9.54161 29.6895 10.0264V15.6664ZM32.7057 31.7762C31.0716 31.7762 29.7424 30.4504 29.7424 28.8207C29.7424 27.1869 31.0716 25.8577 32.7057 25.8577C34.3394 25.8577 35.6687 27.1869 35.6687 28.8207C35.6687 30.4504 34.3394 31.7762 32.7057 31.7762Z" fill="#BF2126"/>
<path id="Vector_4" d="M15.0137 10.0293H28.809V15.6652H15.0137V10.0293Z" fill="#BF2126"/>
</g>
</g>
</svg>
