<svg width="39" height="40" viewBox="0 0 39 40" fill="none" xmlns="http://www.w3.org/2000/svg">
<g id="Vector">
<path d="M0.71119 20.6897C1.0921 20.6897 1.4009 20.3809 1.4009 20C1.4009 19.6191 1.0921 19.3103 0.71119 19.3103C0.330276 19.3103 0.0214844 19.6191 0.0214844 20C0.0214844 20.3809 0.330276 20.6897 0.71119 20.6897Z" fill="white"/>
<path d="M28.2994 4.46989C28.4176 4.5381 28.5533 4.56975 28.6894 4.56083C28.8255 4.55192 28.9559 4.50283 29.0642 4.41979C29.1724 4.33675 29.2535 4.22349 29.2974 4.09431C29.3412 3.96514 29.3458 3.82587 29.3105 3.6941C29.2752 3.56234 29.2016 3.444 29.0991 3.35406C28.9965 3.26411 28.8696 3.2066 28.7343 3.1888C28.5991 3.17099 28.4616 3.19369 28.3393 3.25403C28.2169 3.31436 28.1152 3.40962 28.047 3.52776C27.9555 3.68617 27.9308 3.87442 27.9781 4.0511C28.0254 4.22779 28.141 4.37843 28.2994 4.46989Z" fill="white"/>
<path d="M10.2006 36.7934C10.5685 36.6948 10.7869 36.3166 10.6883 35.9487C10.5897 35.5808 10.2115 35.3624 9.84358 35.461C9.47564 35.5596 9.25729 35.9378 9.35588 36.3057C9.45447 36.6736 9.83266 36.892 10.2006 36.7934Z" fill="white"/>
<path d="M10.3671 4.46989C10.4852 4.40169 10.5805 4.29998 10.6408 4.17764C10.7011 4.05529 10.7238 3.91781 10.706 3.78256C10.6882 3.64732 10.6307 3.52039 10.5408 3.41783C10.4508 3.31527 10.3325 3.24168 10.2007 3.20638C10.069 3.17108 9.92969 3.17564 9.80051 3.21949C9.67134 3.26334 9.55807 3.34451 9.47503 3.45273C9.392 3.56096 9.34291 3.69138 9.334 3.8275C9.32508 3.96362 9.35672 4.09933 9.42494 4.21746C9.5164 4.37587 9.66704 4.49145 9.84373 4.53879C10.0204 4.58613 10.2087 4.56135 10.3671 4.46989Z" fill="white"/>
<path d="M29.3106 36.3056C29.4092 35.9377 29.1908 35.5595 28.8229 35.4609C28.4549 35.3623 28.0768 35.5806 27.9782 35.9486C27.8796 36.3165 28.0979 36.6947 28.4659 36.7933C28.8338 36.8919 29.212 36.6735 29.3106 36.3056Z" fill="white"/>
<path d="M19.3333 15.1721L21.3555 2.36491C21.4014 2.07279 21.3835 1.7742 21.303 1.48967C21.2224 1.20514 21.0812 0.941428 20.8891 0.716687C20.6969 0.491945 20.4583 0.311505 20.1897 0.187785C19.9211 0.0640643 19.629 0 19.3333 0C19.0375 0 18.7454 0.0640643 18.4768 0.187785C18.2082 0.311505 17.9696 0.491945 17.7774 0.716687C17.5853 0.941428 17.4441 1.20514 17.3635 1.48967C17.283 1.7742 17.2651 2.07279 17.311 2.36491L19.3333 15.1721Z" fill="white"/>
<path d="M19.3333 24.8279L17.311 37.6351C17.2651 37.9272 17.283 38.2258 17.3635 38.5103C17.4441 38.7949 17.5853 39.0586 17.7774 39.2833C17.9696 39.5081 18.2082 39.6885 18.4768 39.8122C18.7454 39.9359 19.0375 40 19.3333 40C19.629 40 19.9211 39.9359 20.1897 39.8122C20.4583 39.6885 20.6969 39.5081 20.8891 39.2833C21.0812 39.0586 21.2224 38.7949 21.303 38.5103C21.3835 38.2258 21.4014 37.9272 21.3555 37.6351L19.3333 24.8279Z" fill="white"/>
<path d="M19.3333 22.0691C20.476 22.0691 21.4024 21.1427 21.4024 20C21.4024 18.8573 20.476 17.9309 19.3333 17.9309C18.1905 17.9309 17.2641 18.8573 17.2641 20C17.2641 21.1427 18.1905 22.0691 19.3333 22.0691Z" fill="white"/>
<path d="M35.1965 20C35.1965 19.715 35.1329 19.4335 35.0101 19.1763C34.8873 18.9191 34.7085 18.6926 34.4869 18.5134C34.2652 18.3342 34.0063 18.2068 33.7291 18.1406C33.4518 18.0745 33.1633 18.0711 32.8846 18.1309L24.1612 20L32.8846 21.8691C33.1633 21.9289 33.4518 21.9255 33.7291 21.8594C34.0063 21.7932 34.2652 21.6658 34.4869 21.4866C34.7085 21.3074 34.8873 21.0809 35.0101 20.8237C35.1329 20.5665 35.1965 20.285 35.1965 20Z" fill="white"/>
<path d="M3.47001 20C3.46995 20.285 3.53365 20.5665 3.65643 20.8237C3.77921 21.0809 3.95797 21.3074 4.17963 21.4866C4.40128 21.6658 4.6602 21.7932 4.93744 21.8594C5.21468 21.9255 5.50321 21.9289 5.78191 21.8691L14.5053 20L5.78191 18.1309C5.50321 18.0711 5.21468 18.0745 4.93744 18.1406C4.6602 18.2068 4.40128 18.3342 4.17963 18.5134C3.95797 18.6926 3.77921 18.9191 3.65643 19.1763C3.53365 19.4335 3.46995 19.715 3.47001 20Z" fill="white"/>
<path d="M3.04998 12.934L15.1523 17.586L5.0722 9.43095C4.84217 9.24455 4.57446 9.11025 4.28752 9.03731C4.00057 8.96436 3.70122 8.95451 3.4101 9.00842C3.11899 9.06234 2.84302 9.17874 2.60123 9.34961C2.35944 9.52047 2.15758 9.74174 2.00956 9.99815C1.86154 10.2546 1.77088 10.54 1.74383 10.8349C1.71678 11.1297 1.75399 11.4269 1.85289 11.7059C1.95179 11.985 2.11002 12.2393 2.31669 12.4513C2.52335 12.6633 2.77353 12.828 3.04998 12.934Z" fill="white"/>
<path d="M35.6165 27.066L23.5142 22.414L33.5943 30.5684C33.8243 30.7543 34.0919 30.8882 34.3786 30.9608C34.6653 31.0335 34.9643 31.0431 35.2551 30.9891C35.5459 30.9351 35.8215 30.8187 36.063 30.648C36.3045 30.4773 36.5062 30.2562 36.6541 30.0001C36.8019 29.7439 36.8926 29.4588 36.9197 29.1643C36.9468 28.8698 36.9098 28.5729 36.8112 28.294C36.7126 28.0152 36.5548 27.761 36.3485 27.549C36.1423 27.337 35.8925 27.1723 35.6165 27.066Z" fill="white"/>
<path d="M27.2649 6.26175C27.018 6.11932 26.7424 6.03389 26.4582 6.01172C26.174 5.98954 25.8885 6.03119 25.6225 6.13361C25.3565 6.23603 25.1168 6.39662 24.9209 6.60364C24.7249 6.81067 24.5778 7.05887 24.4902 7.3301L21.7472 15.819L27.7277 9.19783C27.9185 8.9863 28.0597 8.73479 28.1409 8.46169C28.222 8.18859 28.2411 7.90081 28.1968 7.61938C28.1524 7.33794 28.0457 7.06999 27.8845 6.83509C27.7232 6.6002 27.5115 6.40431 27.2649 6.26175Z" fill="white"/>
<path d="M11.4016 33.7383C11.6485 33.8807 11.9241 33.9661 12.2083 33.9883C12.4925 34.0105 12.778 33.9688 13.044 33.8664C13.31 33.764 13.5497 33.6034 13.7456 33.3964C13.9416 33.1893 14.0887 32.9411 14.1763 32.6699L16.9193 24.181L10.9388 30.8022C10.748 31.0137 10.6068 31.2652 10.5256 31.5383C10.4445 31.8114 10.4254 32.0992 10.4697 32.3806C10.5141 32.6621 10.6208 32.93 10.782 33.1649C10.9433 33.3998 11.155 33.5957 11.4016 33.7383Z" fill="white"/>
<path d="M37.9553 20.6897C38.3362 20.6897 38.645 20.3809 38.645 20C38.645 19.6191 38.3362 19.3103 37.9553 19.3103C37.5744 19.3103 37.2656 19.6191 37.2656 20C37.2656 20.3809 37.5744 20.6897 37.9553 20.6897Z" fill="white"/>
<path d="M33.5943 9.43095L23.5142 17.586L35.6165 12.934C35.893 12.828 36.1431 12.6633 36.3498 12.4513C36.5565 12.2393 36.7147 11.985 36.8136 11.7059C36.9125 11.4269 36.9497 11.1297 36.9227 10.8349C36.8956 10.54 36.805 10.2546 36.6569 9.99815C36.5089 9.74174 36.3071 9.52047 36.0653 9.34961C35.8235 9.17874 35.5475 9.06234 35.2564 9.00842C34.9653 8.95451 34.6659 8.96436 34.379 9.03731C34.092 9.11025 33.8243 9.24455 33.5943 9.43095Z" fill="white"/>
<path d="M3.04998 27.066C2.77395 27.1723 2.52422 27.337 2.31798 27.549C2.11173 27.761 1.95388 28.0152 1.85527 28.294C1.75667 28.5729 1.71966 28.8698 1.74679 29.1643C1.77392 29.4588 1.86455 29.7439 2.01244 30.0001C2.16033 30.2562 2.36197 30.4773 2.60347 30.648C2.84498 30.8187 3.12061 30.9351 3.4114 30.9891C3.70219 31.0431 4.00123 31.0335 4.28794 30.9608C4.57464 30.8882 4.8422 30.7543 5.0722 30.5684L15.1523 22.414L3.04998 27.066Z" fill="white"/>
<path d="M27.7277 30.8008L21.7472 24.1796L24.4902 32.6699C24.5777 32.9413 24.7248 33.1898 24.9207 33.397C25.1167 33.6042 25.3565 33.7649 25.6226 33.8675C25.8887 33.97 26.1744 34.0117 26.4587 33.9895C26.743 33.9673 27.0188 33.8817 27.2658 33.7391C27.5128 33.5965 27.7247 33.4005 27.8861 33.1654C28.0475 32.9303 28.1543 32.662 28.1985 32.3803C28.2428 32.0986 28.2235 31.8105 28.142 31.5372C28.0606 31.2639 27.919 31.0123 27.7277 30.8008Z" fill="white"/>
<path d="M11.4016 6.26175C11.1547 6.40428 10.9428 6.60022 10.7814 6.83523C10.6201 7.07024 10.5133 7.33837 10.4689 7.61998C10.4245 7.9016 10.4437 8.18957 10.525 8.46282C10.6063 8.73606 10.7477 8.98767 10.9388 9.19921L16.9193 15.8204L14.1763 7.3301C14.0887 7.05887 13.9416 6.81067 13.7456 6.60364C13.5497 6.39662 13.31 6.23603 13.044 6.13361C12.778 6.03119 12.4925 5.98954 12.2083 6.01172C11.9241 6.03389 11.6485 6.11932 11.4016 6.26175Z" fill="white"/>
</g>
</svg>
