<svg width="41" height="40" viewBox="0 0 41 40" fill="none" xmlns="http://www.w3.org/2000/svg">
<g id="Vector">
<path d="M11.9923 12.8302C11.9223 12.8302 11.8517 12.824 11.7815 12.8111C11.7382 12.8033 10.7086 12.6138 9.54875 12.3055C7.2525 11.6953 6.53313 11.171 6.19188 10.8297C4.82109 9.45891 4.82109 7.22859 6.19188 5.85781C7.56258 4.48719 9.79305 4.48703 11.1637 5.85781C11.505 6.19906 12.0294 6.91836 12.6396 9.21469C12.9478 10.3745 13.1373 11.4041 13.1452 11.4474C13.2145 11.8262 13.0933 12.2147 12.8211 12.487C12.5992 12.7087 12.3002 12.8302 11.9923 12.8302Z" fill="white"/>
<path d="M31.9902 35.1702C31.0899 35.1702 30.1896 34.8275 29.5043 34.1422C29.163 33.8009 28.6387 33.0816 28.0284 30.7853C27.7202 29.6255 27.5308 28.5959 27.5229 28.5526C27.4536 28.1738 27.5748 27.7853 27.847 27.513C28.1191 27.2409 28.5077 27.1195 28.8865 27.189C28.9298 27.1969 29.9594 27.3862 31.1192 27.6945C33.4155 28.3048 34.1348 28.8291 34.4761 29.1704C35.8469 30.5412 35.8469 32.7715 34.4761 34.1423C33.7908 34.8275 32.8905 35.1702 31.9902 35.1702Z" fill="white"/>
<path d="M3.84961 23.5156C1.91109 23.5156 0.333984 21.9386 0.333984 20C0.333984 18.0614 1.91109 16.4844 3.84961 16.4844C4.33227 16.4844 5.21164 16.6223 7.2668 17.8145C8.30484 18.4166 9.16687 19.0107 9.20312 19.0358C9.51992 19.2546 9.70898 19.615 9.70898 20C9.70898 20.385 9.51992 20.7454 9.20312 20.9642C9.16687 20.9892 8.30484 21.5834 7.2668 22.1855C5.21164 23.3777 4.33227 23.5156 3.84961 23.5156Z" fill="white"/>
<path d="M36.8184 23.5156C36.3357 23.5156 35.4563 23.3777 33.4012 22.1855C32.3631 21.5834 31.5011 20.9893 31.4648 20.9642C31.148 20.7454 30.959 20.385 30.959 20C30.959 19.615 31.148 19.2546 31.4648 19.0358C31.5011 19.0108 32.3631 18.4166 33.4012 17.8145C35.4563 16.6223 36.3357 16.4844 36.8184 16.4844C38.757 16.4844 40.334 18.0614 40.334 20C40.334 21.9386 38.757 23.5156 36.8184 23.5156Z" fill="white"/>
<path d="M8.67781 35.1702C7.7775 35.1702 6.87719 34.8275 6.19188 34.1422C4.82109 32.7714 4.82109 30.5411 6.19188 29.1703C6.53313 28.8291 7.25242 28.3047 9.54875 27.6945C10.7086 27.3863 11.7382 27.1968 11.7815 27.1889C12.1608 27.1195 12.5488 27.2408 12.821 27.513C13.0932 27.7852 13.2144 28.1737 13.1451 28.5525C13.1373 28.5958 12.9478 29.6254 12.6395 30.7852C12.0293 33.0816 11.505 33.8009 11.1637 34.1421C10.4784 34.8275 9.57805 35.1702 8.67781 35.1702Z" fill="white"/>
<path d="M28.6756 12.8302C28.3677 12.8302 28.0687 12.7087 27.847 12.487C27.5748 12.2148 27.4537 11.8262 27.523 11.4474C27.5309 11.4041 27.7202 10.3745 28.0285 9.21469C28.6388 6.91844 29.163 6.19906 29.5044 5.85781C30.8751 4.48703 33.1055 4.48719 34.4762 5.85781C35.847 7.22859 35.847 9.45891 34.4762 10.8297C34.135 11.1709 33.4157 11.6953 31.1194 12.3055C29.9595 12.6138 28.9299 12.8032 28.8866 12.8111C28.8162 12.8239 28.7457 12.8302 28.6756 12.8302Z" fill="white"/>
<path d="M15.6973 32.2395C15.5467 32.2395 15.3938 32.2104 15.2464 32.1488C14.6491 31.8995 14.367 31.2132 14.6163 30.616L15.1286 29.3888C15.3779 28.7913 16.0645 28.5093 16.6614 28.7587C17.2587 29.008 17.5408 29.6942 17.2915 30.2915L16.7792 31.5187C16.5915 31.9684 16.1559 32.2395 15.6973 32.2395Z" fill="white"/>
<path d="M24.4575 11.254C24.307 11.254 24.1541 11.2248 24.0066 11.1633C23.4092 10.914 23.1272 10.2277 23.3765 9.63047L23.8888 8.4032C24.1381 7.80586 24.8247 7.52383 25.4216 7.77313C26.0189 8.02242 26.3009 8.70875 26.0516 9.30594L25.5394 10.5332C25.3517 10.9829 24.9162 11.254 24.4575 11.254Z" fill="white"/>
<path d="M31.4399 25.7694C31.2895 25.7694 31.1365 25.7402 30.989 25.6787L29.7617 25.1664C29.1644 24.9171 28.8823 24.2308 29.1316 23.6336C29.3809 23.0363 30.0674 22.7542 30.6645 23.0035L31.8917 23.5158C32.489 23.7651 32.7711 24.4514 32.5218 25.0486C32.3341 25.4983 31.8986 25.7694 31.4399 25.7694Z" fill="white"/>
<path d="M10.4544 17.0091C10.3039 17.0091 10.1509 16.98 10.0035 16.9184L8.77625 16.4062C8.17891 16.1569 7.89688 15.4705 8.14617 14.8734C8.39547 14.2761 9.08203 13.9941 9.67898 14.2433L10.9062 14.7555C11.5035 15.0048 11.7856 15.6912 11.5363 16.2884C11.3485 16.738 10.913 17.0091 10.4544 17.0091Z" fill="white"/>
<path d="M9.20273 25.7082C8.74172 25.7082 8.30453 25.4344 8.11836 24.9815C7.87234 24.3829 8.1582 23.6981 8.7568 23.4521L9.9868 22.9466C10.5852 22.7006 11.2701 22.9863 11.5162 23.585C11.7622 24.1836 11.4763 24.8684 10.8777 25.1144L9.64773 25.6199C9.50203 25.6798 9.35109 25.7082 9.20273 25.7082Z" fill="white"/>
<path d="M30.2362 17.0636C29.7752 17.0636 29.338 16.7898 29.1518 16.3369C28.9058 15.7383 29.1916 15.0535 29.7902 14.8075L31.0202 14.302C31.6187 14.0559 32.3035 14.3418 32.5496 14.9404C32.7956 15.539 32.5098 16.2238 31.9112 16.4698L30.6812 16.9753C30.5355 17.0352 30.3845 17.0636 30.2362 17.0636Z" fill="white"/>
<path d="M24.9095 32.2648C24.4484 32.2648 24.0112 31.991 23.8251 31.5381L23.3195 30.3081C23.0735 29.7095 23.3594 29.0248 23.958 28.7788C24.5564 28.5328 25.2413 28.8185 25.4873 29.4172L25.9929 30.6472C26.2389 31.2458 25.953 31.9305 25.3545 32.1766C25.2087 32.2365 25.0579 32.2648 24.9095 32.2648Z" fill="white"/>
<path d="M16.2649 11.2314C15.8039 11.2314 15.3667 10.9576 15.1805 10.5047L14.675 9.27469C14.429 8.67609 14.7148 7.99133 15.3134 7.74531C15.9119 7.49937 16.5967 7.78508 16.8428 8.38375L17.3484 9.61375C17.5944 10.2123 17.3085 10.8971 16.7099 11.1431C16.5642 11.203 16.4133 11.2314 16.2649 11.2314Z" fill="white"/>
<path d="M15.3345 26.1323C15.0346 26.1323 14.7347 26.0178 14.5059 25.789C14.0483 25.3314 14.0483 24.5894 14.5059 24.1317L15.0584 23.5793C15.5159 23.1217 16.258 23.1217 16.7156 23.5793C17.1733 24.037 17.1733 24.7789 16.7156 25.2366L16.1632 25.789C15.9344 26.0178 15.6345 26.1323 15.3345 26.1323Z" fill="white"/>
<path d="M24.781 16.6858C24.4811 16.6858 24.1812 16.5713 23.9523 16.3426C23.4947 15.885 23.4947 15.143 23.9523 14.6853L24.5048 14.1329C24.9623 13.6753 25.7044 13.6753 26.162 14.1329C26.6197 14.5905 26.6197 15.3325 26.162 15.7902L25.6096 16.3426C25.3809 16.5713 25.0809 16.6858 24.781 16.6858Z" fill="white"/>
<path d="M25.3334 26.1323C25.0335 26.1323 24.7336 26.0178 24.5048 25.789L23.9523 25.2366C23.4947 24.779 23.4947 24.037 23.9523 23.5793C24.41 23.1217 25.152 23.1217 25.6096 23.5793L26.162 24.1317C26.6197 24.5893 26.6197 25.3313 26.162 25.789C25.9333 26.0178 25.6334 26.1323 25.3334 26.1323Z" fill="white"/>
<path d="M15.887 16.6858C15.587 16.6858 15.2871 16.5713 15.0584 16.3426L14.5059 15.7902C14.0483 15.3326 14.0483 14.5905 14.5059 14.1329C14.9635 13.6753 15.7055 13.6753 16.1632 14.1329L16.7156 14.6853C17.1733 15.1429 17.1733 15.8849 16.7156 16.3426C16.4868 16.5713 16.1869 16.6858 15.887 16.6858Z" fill="white"/>
<path d="M14.0449 21.1328H13.2637C12.6165 21.1328 12.0918 20.6081 12.0918 19.9609C12.0918 19.3137 12.6165 18.7891 13.2637 18.7891H14.0449C14.6921 18.7891 15.2168 19.3137 15.2168 19.9609C15.2168 20.6081 14.6921 21.1328 14.0449 21.1328Z" fill="white"/>
<path d="M27.4043 21.1328H26.623C25.9759 21.1328 25.4512 20.6081 25.4512 19.9609C25.4512 19.3137 25.9759 18.7891 26.623 18.7891H27.4043C28.0515 18.7891 28.5762 19.3137 28.5762 19.9609C28.5762 20.6081 28.0515 21.1328 27.4043 21.1328Z" fill="white"/>
<path d="M20.334 9.375C19.949 9.375 19.5886 9.18594 19.3698 8.86914C19.3448 8.83289 18.7506 7.97086 18.1484 6.93281C16.9562 4.87766 16.8184 3.99828 16.8184 3.51562C16.8184 1.57711 18.3954 0 20.334 0C22.2726 0 23.8496 1.57711 23.8496 3.51562C23.8496 3.99828 23.7117 4.87766 22.5195 6.93281C21.9173 7.97086 21.3233 8.83289 21.2982 8.86914C21.0794 9.18594 20.719 9.375 20.334 9.375Z" fill="white"/>
<path d="M20.334 14.8438C19.6868 14.8438 19.1621 14.3191 19.1621 13.6719V12.8906C19.1621 12.2434 19.6868 11.7188 20.334 11.7188C20.9812 11.7188 21.5059 12.2434 21.5059 12.8906V13.6719C21.5059 14.3191 20.9812 14.8438 20.334 14.8438Z" fill="white"/>
<path d="M20.334 23.5156C18.3954 23.5156 16.8184 21.9386 16.8184 20C16.8184 18.0614 18.3954 16.4844 20.334 16.4844C22.2726 16.4844 23.8496 18.0614 23.8496 20C23.8496 21.9386 22.2726 23.5156 20.334 23.5156Z" fill="white"/>
<path d="M20.334 28.2031C19.6868 28.2031 19.1621 27.6784 19.1621 27.0312V26.25C19.1621 25.6028 19.6868 25.0781 20.334 25.0781C20.9812 25.0781 21.5059 25.6028 21.5059 26.25V27.0312C21.5059 27.6784 20.9812 28.2031 20.334 28.2031Z" fill="white"/>
<path d="M20.334 40C18.3954 40 16.8184 38.423 16.8184 36.4844C16.8184 36.0017 16.9562 35.1223 18.1484 33.0672C18.7506 32.0291 19.3447 31.1671 19.3698 31.1309C19.5886 30.8141 19.949 30.625 20.334 30.625C20.719 30.625 21.0794 30.8141 21.2982 31.1309C21.3232 31.1671 21.9173 32.0291 22.5195 33.0672C23.7117 35.1223 23.8496 36.0017 23.8496 36.4844C23.8496 38.423 22.2726 40 20.334 40Z" fill="white"/>
</g>
</svg>
