<svg width="40" height="40" viewBox="0 0 40 40" fill="none" xmlns="http://www.w3.org/2000/svg">
<g id="Vector">
<path d="M31.1109 25.1945C34.572 23.2008 34.5709 17.9807 31.1109 15.9879C32.1486 12.1308 28.4565 8.44027 24.6009 9.47798C22.6072 6.01669 17.387 6.01794 15.3943 9.47798C13.5919 9.01784 11.654 9.52384 10.2921 10.8857C8.93018 12.2477 8.42418 14.1855 8.88423 15.988C5.42302 17.9817 5.42435 23.2018 8.88423 25.1945C7.83723 29.1207 11.6177 32.7394 15.3943 31.7045C17.3879 35.1658 22.6082 35.1645 24.6009 31.7046C26.4033 32.1646 28.3411 31.6586 29.7031 30.2967C31.065 28.9349 31.571 26.997 31.1109 25.1945ZM16.9425 16.1974C16.2044 16.1974 15.6038 16.798 15.6038 17.5362C15.6038 18.1834 15.0791 18.7082 14.4318 18.7082C13.7845 18.7082 13.2598 18.1834 13.2598 17.5362C13.2598 15.5055 14.9119 13.8534 16.9425 13.8534C18.4952 13.9109 18.4954 16.1399 16.9425 16.1974Z" fill="#BF2126"/>
<path d="M39.3522 33.386L36.7724 32.096L35.4825 29.5163C35.0652 28.6588 33.803 28.6591 33.386 29.5163L32.0961 32.096L29.5163 33.386C28.6589 33.8031 28.6592 35.0654 29.5163 35.4825L32.0962 36.7725L33.386 39.3522C33.8034 40.2096 35.0655 40.2093 35.4826 39.3522L36.7725 36.7725L39.3523 35.4825C40.2096 35.0652 40.2093 33.803 39.3522 33.386Z" fill="#BF2126"/>
<path d="M7.23692 11.7341L8.73601 8.73601L11.7343 7.23676C12.5916 6.81952 12.5913 5.55725 11.7343 5.14025L8.73609 3.64108L7.23692 0.642971C6.8196 -0.21448 5.55741 -0.214167 5.14033 0.642971L3.64116 3.64116L0.642971 5.14025C-0.21448 5.55741 -0.214167 6.81968 0.642971 7.23676L3.64123 8.73601L5.14033 11.7341C5.55757 12.5916 6.81976 12.5913 7.23692 11.7341Z" fill="#BF2126"/>
<path d="M28.5711 5.74142C29.2114 6.11115 29.8968 5.78932 30.1721 5.31246L31.522 2.97443C31.8456 2.41382 31.6535 1.69701 31.093 1.37345C30.5325 1.04958 29.8156 1.2418 29.492 1.80241L28.1422 4.14036C27.8185 4.70098 28.0106 5.41779 28.5711 5.74142Z" fill="#BF2126"/>
<path d="M36.8913 12.191L38.2649 11.398C39.5813 10.5716 38.4656 8.64108 37.0929 9.36804L35.7193 10.161C34.4283 10.9508 35.4729 12.919 36.8913 12.191Z" fill="#BF2126"/>
<path d="M11.424 35.4715C10.8634 35.1477 10.1466 35.3398 9.82302 35.9005L8.47317 38.2384C8.14953 38.799 8.34159 39.5158 8.90213 39.8394C9.54244 40.2092 10.2278 39.8874 10.5031 39.4105L11.853 37.0725C12.1767 36.512 11.9846 35.7952 11.424 35.4715Z" fill="#BF2126"/>
<path d="M3.1039 28.9914L1.73029 29.7845C1.16976 30.1082 0.977701 30.8249 1.30133 31.3855C1.58473 31.8762 2.27755 32.1751 2.90239 31.8144L4.276 31.0214C4.83654 30.6977 5.0286 29.9809 4.70496 29.4204C4.38117 28.8599 3.66436 28.6679 3.1039 28.9914Z" fill="#BF2126"/>
</g>
</svg>
