<svg width="52" height="40" viewBox="0 0 52 40" fill="none" xmlns="http://www.w3.org/2000/svg">
<g id="Group 258">
<path id="Vector" d="M29.7389 3.63358C29.8942 3.34282 29.9897 3.02388 30.0197 2.6956C30.0498 2.36732 30.0137 2.03635 29.9137 1.72223C29.8137 1.40811 29.6518 1.1172 29.4376 0.866689C29.2233 0.616173 28.961 0.411125 28.6662 0.263649C27.4612 -0.339641 25.9926 0.169768 25.3583 1.35757L18.8054 13.6332C18.7359 13.7626 18.6293 13.8683 18.4992 13.9365C18.3692 14.0048 18.2216 14.0325 18.0757 14.016C17.9297 13.9996 17.792 13.9398 17.6804 13.8444C17.5687 13.7489 17.4883 13.6222 17.4494 13.4805L16.5342 10.1228C15.9726 8.04868 15.0714 6.08186 13.8672 4.30218C11.694 1.08899 9.32088 -0.334743 6.81465 0.0660899C4.73538 0.399165 2.94837 1.97147 1.50341 4.73894C0.928755 5.85272 0.457377 7.01682 0.0951875 8.21663C0.00604577 8.52823 -0.0208497 8.85433 0.016036 9.17631C0.0529217 9.4983 0.152866 9.80987 0.310164 10.0932C0.467461 10.3766 0.679031 10.6262 0.932793 10.8278C1.18656 11.0294 1.47754 11.179 1.78914 11.2682C2.10073 11.3573 2.42683 11.3842 2.74882 11.3473C3.07081 11.3105 3.38238 11.2105 3.66574 11.0532C3.9491 10.8959 4.19871 10.6843 4.40031 10.4306C4.60191 10.1768 4.75155 9.88583 4.84069 9.57424C5.11821 8.67294 5.47669 7.79859 5.91176 6.96189C6.74036 5.39856 7.42202 4.96833 7.59509 4.94139C7.72816 4.92017 8.53717 5.23202 9.77967 7.06393C10.6786 8.39422 11.3516 9.86385 11.7716 11.4135L13.8721 19.1436C14.0816 19.9264 14.0963 20.7486 13.9149 21.5384C13.7335 22.3282 13.3614 23.0616 12.8312 23.6744C12.668 23.8633 12.5063 24.069 12.3463 24.2916C11.3014 25.7357 10.4581 27.6917 9.97233 29.7987C9.18863 33.2038 9.46374 36.3296 10.7071 38.1615C11.3822 39.1542 12.3561 39.7943 13.4484 39.9575C13.6375 39.9862 13.8286 40.0004 14.0198 40C15.1146 40 16.7742 39.5412 18.3841 37.3174C19.4299 35.8741 20.2724 33.9181 20.7581 31.8103C21.4855 28.6518 21.3001 25.7341 20.2764 23.8671C19.9867 22.8021 20.1149 21.6666 20.6348 20.6931L29.7389 3.63358ZM16.2534 30.807C16.0199 31.8209 15.3938 32.5776 15.0632 33.2634C15.0322 33.3274 14.9801 33.3788 14.9157 33.4089C14.8512 33.439 14.7784 33.4458 14.7094 33.4284C14.6405 33.4109 14.5797 33.3701 14.5374 33.313C14.495 33.2559 14.4737 33.1859 14.477 33.1148C14.5007 32.4911 14.2827 31.6454 14.477 30.807C14.7113 29.7922 15.3375 29.0355 15.6673 28.3505C15.6985 28.2869 15.7506 28.2359 15.8149 28.2061C15.8792 28.1763 15.9518 28.1695 16.0206 28.1868C16.0893 28.2041 16.15 28.2444 16.1926 28.3012C16.2351 28.3579 16.2569 28.4275 16.2542 28.4983C16.2289 29.122 16.4469 29.9645 16.2534 30.807Z" fill="#BF2126"/>
<path id="Vector_2" d="M51.2389 3.63358C51.3942 3.34282 51.4897 3.02388 51.5197 2.6956C51.5497 2.36732 51.5137 2.03635 51.4137 1.72223C51.3137 1.40811 51.1518 1.11721 50.9376 0.866689C50.7233 0.616173 50.461 0.411126 50.1662 0.26365C48.9612 -0.339642 47.4926 0.169766 46.8583 1.35757L40.3053 13.6332C40.2359 13.7626 40.1293 13.8683 39.9992 13.9365C39.8692 14.0048 39.7216 14.0325 39.5757 14.016C39.4297 13.9996 39.292 13.9398 39.1804 13.8444C39.0687 13.7489 38.9883 13.6222 38.9494 13.4805L38.0342 10.1228C37.4726 8.04868 36.5714 6.08186 35.3672 4.30218C33.194 1.08898 30.8209 -0.334744 28.3147 0.0660905C26.2354 0.399166 24.4484 1.97147 23.0034 4.73894C22.4288 5.85272 21.9574 7.01682 21.5952 8.21663C21.506 8.52823 21.4792 8.85433 21.516 9.17631C21.5529 9.4983 21.6529 9.80987 21.8102 10.0932C21.9675 10.3766 22.179 10.6262 22.4328 10.8278C22.6866 11.0294 22.9775 11.179 23.2891 11.2682C23.6007 11.3573 23.9268 11.3842 24.2488 11.3473C24.5708 11.3105 24.8824 11.2105 25.1657 11.0532C25.4491 10.8959 25.6987 10.6843 25.9003 10.4306C26.1019 10.1768 26.2515 9.88583 26.3407 9.57424C26.6182 8.67294 26.9767 7.79859 27.4118 6.96189C28.2404 5.39855 28.922 4.96833 29.0951 4.94139C29.2282 4.92017 30.0372 5.23201 31.2797 7.06393C32.1786 8.39422 32.8516 9.86385 33.2716 11.4135L35.3721 19.1436C35.5816 19.9264 35.5963 20.7486 35.4149 21.5384C35.2335 22.3282 34.8614 23.0616 34.3312 23.6744C34.168 23.8633 34.0063 24.069 33.8463 24.2916C32.8014 25.7357 31.9581 27.6917 31.4723 29.7987C30.6886 33.2038 30.9637 36.3296 32.2071 38.1615C32.8822 39.1542 33.8561 39.7943 34.9484 39.9575C35.1375 39.9862 35.3286 40.0004 35.5198 40C36.6146 40 38.2742 39.5412 39.8841 37.3174C40.9299 35.8741 41.7724 33.9181 42.2581 31.8103C42.9855 28.6518 42.8001 25.7341 41.7764 23.8671C41.4867 22.8021 41.6149 21.6666 42.1348 20.6931L51.2389 3.63358ZM37.7534 30.807C37.5199 31.8209 36.8938 32.5776 36.5632 33.2634C36.5322 33.3274 36.4801 33.3788 36.4157 33.4089C36.3512 33.439 36.2784 33.4458 36.2094 33.4284C36.1405 33.4109 36.0797 33.3701 36.0374 33.313C35.995 33.2559 35.9737 33.1859 35.977 33.1148C36.0007 32.4911 35.7827 31.6454 35.977 30.807C36.2113 29.7922 36.8375 29.0355 37.1673 28.3505C37.1985 28.2869 37.2506 28.2359 37.3149 28.2061C37.3792 28.1763 37.4518 28.1695 37.5206 28.1868C37.5893 28.2041 37.65 28.2444 37.6926 28.3012C37.7351 28.3579 37.7569 28.4275 37.7542 28.4983C37.7289 29.122 37.9469 29.9645 37.7534 30.807Z" fill="#BF2126"/>
</g>
</svg>
