<svg width="40" height="40" viewBox="0 0 40 40" fill="none" xmlns="http://www.w3.org/2000/svg">
<g id="Vector">
<path d="M1.17187 40H22.4219C23.0691 40 23.5937 39.4754 23.5937 38.8281V37.5781C23.5937 36.2836 22.5445 35.2344 21.25 35.2344V33.8333C21.25 31.9782 19.7406 30.4688 17.8854 30.4688H5.70831C3.85315 30.4688 2.34375 31.9782 2.34375 33.8333V35.2344C1.04919 35.2344 0 36.2836 0 37.5781V38.8281C0 39.4751 0.524902 40 1.17187 40Z" fill="white"/>
<path d="M14.6667 25.8081C15.4455 26.8417 16.9153 27.0483 17.9489 26.2692C18.9828 25.4904 19.1891 24.0207 18.4103 22.9868L11.3577 13.6279C10.5786 12.594 9.10919 12.3877 8.07556 13.1665C7.04162 13.9456 6.83502 15.4151 7.61413 16.449L14.6667 25.8081Z" fill="white"/>
<path d="M31.5127 13.1134C32.2919 14.1471 33.7613 14.3537 34.7952 13.5745C35.8288 12.7957 36.0354 11.3263 35.2563 10.2924L28.2037 0.933559C27.4249 -0.100376 25.9552 -0.30698 24.9216 0.472134C23.8879 1.25125 23.6813 2.72067 24.4604 3.7546L31.5127 13.1134Z" fill="white"/>
<path d="M26.3721 19.9219C28.1042 18.6167 29.4046 16.9959 30.2179 15.2893L22.0117 4.39944C20.1471 4.71102 18.2309 5.51394 16.4984 6.81948C14.7662 8.12472 13.4659 9.7455 12.6526 11.4517L20.8588 22.3422C22.7234 22.0307 24.6396 21.2274 26.3721 19.9219Z" fill="white"/>
<path d="M29.5364 20.2271C28.9908 20.7831 28.4161 21.3162 27.7826 21.7938C27.1487 22.2711 26.4776 22.6767 25.7931 23.0481L27.3211 25.076L31.0647 22.2553L29.5364 20.2271Z" fill="white"/>
<path d="M32.4753 24.1269L28.7317 26.9476L35.7843 36.3068C36.5634 37.3407 38.0328 37.547 39.0664 36.7682C40.1004 35.9891 40.3067 34.5197 39.5279 33.4857L32.4753 24.1269Z" fill="white"/>
</g>
</svg>
