<svg width="40" height="40" viewBox="0 0 40 40" fill="none" xmlns="http://www.w3.org/2000/svg">
<path id="Vector" d="M20 0C16.0444 0 12.1776 1.17298 8.8886 3.37061C5.59962 5.56823 3.03617 8.69181 1.52242 12.3463C0.0086656 16.0009 -0.387401 20.0222 0.384303 23.9018C1.15601 27.7814 3.06082 31.3451 5.85787 34.1421C8.65492 36.9392 12.2186 38.844 16.0982 39.6157C19.9778 40.3874 23.9992 39.9913 27.6537 38.4776C31.3082 36.9638 34.4318 34.4004 36.6294 31.1114C38.827 27.8224 40 23.9556 40 20C39.9946 14.6973 37.8857 9.61341 34.1361 5.86386C30.3866 2.11431 25.3027 0.00543028 20 0ZM28.2051 21.5385H20C19.5936 21.5331 19.2054 21.3694 18.918 21.082C18.6307 20.7946 18.4669 20.4064 18.4615 20V9.74359C18.4615 9.33556 18.6236 8.94425 18.9122 8.65573C19.2007 8.36721 19.592 8.20513 20 8.20513C20.408 8.20513 20.7993 8.36721 21.0879 8.65573C21.3764 8.94425 21.5385 9.33556 21.5385 9.74359V18.4615H28.2051C28.6132 18.4615 29.0045 18.6236 29.293 18.9121C29.5815 19.2007 29.7436 19.592 29.7436 20C29.7436 20.408 29.5815 20.7993 29.293 21.0879C29.0045 21.3764 28.6132 21.5385 28.2051 21.5385Z" fill="white"/>
</svg>
