<svg width="41" height="40" viewBox="0 0 41 40" fill="none" xmlns="http://www.w3.org/2000/svg">
<g id="Vector">
<path d="M35.9317 18.4659C35.9317 15.1893 34.9395 12.0401 33.0624 9.35861C32.0377 7.89477 30.7923 6.62798 29.3747 5.59543C29.0919 6.47301 28.6046 7.29836 27.909 7.99384L25.139 10.764C27.6491 12.4374 29.2635 15.2943 29.2635 18.466V37.6544H23.1168V23.8777H25.9794V21.5321H14.0528V23.8777H16.9154V37.6543H10.7686V18.4659C10.7686 15.3127 12.3823 12.4528 14.8855 10.7739L12.1157 7.98618C11.4232 7.29375 10.9378 6.47129 10.656 5.59645C9.23671 6.63048 7.99032 7.89923 6.96512 9.36533C5.09104 12.0453 4.10048 15.1923 4.10048 18.466V37.6544H0V40H40.0321V37.6544H35.9317V18.4659Z" fill="white"/>
<path d="M19.996 12.7004L26.3057 6.39052C27.7653 4.93091 27.7653 2.55604 26.3057 1.09643C25.5987 0.389375 24.6586 0 23.6588 0C22.6588 0 21.7187 0.389375 21.0117 1.09643L20.0162 2.09184L19.0207 1.09643C17.5612 -0.363182 15.1862 -0.363182 13.7266 1.09643C12.267 2.55604 12.267 4.93091 13.7242 6.3881L19.996 12.7004Z" fill="white"/>
</g>
</svg>
