<svg width="38" height="40" viewBox="0 0 38 40" fill="none" xmlns="http://www.w3.org/2000/svg">
<g id="Vector">
<path d="M14.0329 0H16.3763V3.33172H14.0329V0Z" fill="white"/>
<path d="M6.58799 2.62181L8.61735 1.45012L10.2832 4.33539L8.25385 5.50708L6.58799 2.62181Z" fill="white"/>
<path d="M1.45165 8.61486L2.62333 6.5855L5.5086 8.25136L4.33692 10.2807L1.45165 8.61486Z" fill="white"/>
<path d="M0 14.0297H3.3318V16.373H0V14.0297Z" fill="white"/>
<path d="M1.45021 21.7878L4.33548 20.122L5.50716 22.1513L2.62189 23.8172L1.45021 21.7878Z" fill="white"/>
<path d="M24.8981 8.25396L27.7834 6.5881L28.9551 8.61746L26.0698 10.2833L24.8981 8.25396Z" fill="white"/>
<path d="M20.1251 4.33758L21.791 1.45224L23.8204 2.62393L22.1545 5.50926L20.1251 4.33758Z" fill="white"/>
<path d="M15.6942 18.0955C15.8448 18.0955 15.9959 18.0995 16.1468 18.1073C16.8907 16.6541 17.9828 15.4096 19.3424 14.4743C20.901 13.4019 22.7141 12.8088 24.6043 12.7485C24.1301 10.9281 23.1328 9.27457 21.7159 7.99369C19.928 6.37747 17.615 5.4873 15.203 5.4873C9.84581 5.4873 5.48738 9.84573 5.48738 15.203C5.48738 17.8338 6.53346 20.3046 8.38714 22.125C9.93267 19.6663 12.6584 18.0955 15.6942 18.0955Z" fill="white"/>
<path d="M13.088 39.0756L15.2413 40L17.2333 35.3601H14.6831L13.088 39.0756Z" fill="white"/>
<path d="M18.9105 39.0756L21.0638 40L23.0558 35.3601H20.5056L18.9105 39.0756Z" fill="white"/>
<path d="M24.733 39.0756L26.8863 40L28.8783 35.3601H26.3281L24.733 39.0756Z" fill="white"/>
<path d="M37.7694 28.0466C37.7694 25.5551 35.9084 23.4368 33.4406 23.1193L32.4917 22.9972L32.4216 22.043C32.2829 20.1556 31.4415 18.4022 30.0523 17.1058C28.6565 15.8031 26.8356 15.0857 24.9251 15.0857C21.8402 15.0857 19.1023 16.9346 17.9496 19.7962L17.6013 20.6607L16.6807 20.5159C16.3555 20.4647 16.0236 20.4388 15.6944 20.4388C12.7988 20.4388 10.2891 22.3984 9.59139 25.2043L9.37463 26.0761L8.47642 26.0931C6.60376 26.1284 5.08018 27.6808 5.08018 29.5538C5.08018 31.4632 6.6336 33.0166 8.54297 33.0166H32.7995C35.5399 33.0168 37.7694 30.7872 37.7694 28.0466Z" fill="white"/>
</g>
</svg>
