<svg width="53" height="40" viewBox="0 0 53 40" fill="none" xmlns="http://www.w3.org/2000/svg">
<g id="Vector">
<path d="M34.5384 33.3479C34.8281 32.2719 34.6212 31.1442 34.3522 30.1407C33.4936 27.2335 31.083 24.885 28.2068 23.6642C30.4414 25.5368 31.7864 27.9992 32.5934 30.7511C32.8521 31.6615 33.028 32.6236 33.3797 33.503C33.4831 33.7514 33.628 34.1755 33.9694 34.1962C34.3315 34.1135 34.4661 33.6272 34.5384 33.3479Z" fill="white"/>
<path d="M42.9393 14.6944C37.9112 13.4115 32.1693 15.0048 28.9517 18.2947C32.7382 15.9255 37.6422 15.4599 42.1633 16.6187C43.6532 17.0222 45.0291 17.5912 46.4671 18.0878C46.8603 18.2223 47.5327 18.5223 47.9466 18.2947C48.2673 17.9429 47.7397 17.3636 47.4913 17.0946C46.3948 15.8944 44.6463 15.1702 42.9393 14.6944Z" fill="white"/>
<path d="M20.7992 1.88628C24.441 4.72107 26.3135 9.67665 25.5893 13.7943C25.3307 9.78011 23.0546 6.05562 19.7854 3.51049C18.6887 2.68282 17.53 2.03106 16.3919 1.29644C16.0816 1.09983 15.5022 0.789459 15.4505 0.365321C15.5437 -0.0588172 16.2575 -0.00708798 16.5886 0.0135228C18.0576 0.106777 19.5267 0.934441 20.7992 1.88628Z" fill="white"/>
<path d="M7.34966 19.6914C10.8362 16.6394 16.1229 15.9152 20.0957 17.6636C16.0506 16.9601 11.9225 18.3879 8.78777 21.1398C7.76349 22.0606 6.90481 23.0952 5.95298 24.0884C5.69433 24.3573 5.2805 24.8746 4.85636 24.8333C4.45283 24.6367 4.62873 23.9229 4.71148 23.5815C5.08399 22.0813 6.1806 20.7674 7.34966 19.6914Z" fill="white"/>
<path d="M41.0977 5.3107C35.1799 6.06593 29.9863 10.556 28.2999 15.9049C31.0519 11.3837 35.9455 8.61106 41.2736 7.93858C43.0427 7.74197 44.7705 7.7937 46.5293 7.73166C47.0051 7.71095 47.8639 7.76268 48.1846 7.30752C48.3398 6.7385 47.4914 6.30396 47.088 6.08674C45.3395 5.16592 43.1359 5.10379 41.0977 5.3107Z" fill="white"/>
<path d="M43.3324 26.8404C39.97 21.9676 33.7832 19.1431 28.4758 19.7121C33.5763 20.3949 38.1699 23.6021 41.1909 27.9991C42.1737 29.4682 42.9186 30.989 43.7773 32.5098C44.0153 32.9236 44.3671 33.6892 44.8947 33.7927C45.443 33.71 45.4327 32.8099 45.4223 32.3753C45.4015 30.482 44.4498 28.5267 43.3324 26.8404Z" fill="white"/>
<path d="M11.4467 6.40742C17.3231 7.2661 22.5064 11.7045 24.2237 16.8981C21.4614 12.4804 16.5886 9.70777 11.2915 8.93184C9.53269 8.70421 7.82563 8.71462 6.07715 8.62146C5.60128 8.59045 4.7529 8.62146 4.43212 8.17661C4.27693 7.62831 5.1149 7.22478 5.50813 7.02827C7.2462 6.17979 9.42923 6.15908 11.4467 6.40742Z" fill="white"/>
<path d="M8.68431 29.282C11.7363 23.2917 18.3784 19.3293 24.5548 19.3603C18.8129 20.7363 14.0745 24.9573 11.3329 30.3579C10.4432 32.1581 9.84306 33.9996 9.10855 35.8412C8.91194 36.3377 8.63268 37.2586 8.03255 37.4448C7.39109 37.4137 7.25661 36.3688 7.19457 35.8722C6.90481 33.6997 7.68075 31.3511 8.68431 29.282Z" fill="white"/>
<path d="M21.8235 29.9337C21.6993 30.2958 20.9338 33.1099 19.9509 32.6961C19.8992 32.6651 19.8578 32.6236 19.8061 32.5616C19.1543 31.5995 19.6819 29.9545 20.2509 28.6405C21.2648 26.3644 23.158 23.9952 25.3101 21.9157C23.6857 24.6264 22.7339 27.2645 21.8235 29.9337Z" fill="white"/>
<path d="M37.5284 19.6501C40.3218 19.6293 43.022 20.5295 45.0188 22.402C45.95 23.3228 46.7879 24.3987 47.3259 25.8161C47.957 27.4612 46.8707 27.1301 46.2396 26.1472C45.4327 24.8954 44.2222 23.6952 43.9532 23.447C42.0909 21.6675 39.97 20.3225 37.5284 19.6501Z" fill="white"/>
<path d="M49.9227 13.0493C48.8261 12.0148 47.3983 11.4457 46.105 11.1664C43.2185 10.5456 40.4356 11.2595 38.1285 13.0286C41.0873 12.2527 42.7738 11.8492 46.2189 12.6562C46.8189 12.8011 48.7226 13.339 49.5813 13.5874C49.9641 13.6908 50.2123 13.3184 49.9227 13.0493Z" fill="white"/>
<path d="M20.551 15.8427C18.0163 14.146 14.985 13.2045 11.9743 13.4425C10.5466 13.5874 9.08774 13.908 7.69105 14.6633C6.06674 15.5427 7.26691 15.9358 8.46699 15.5737C9.99815 15.0978 11.8708 14.9115 12.2742 14.8702C15.0987 14.6426 17.8921 14.8806 20.551 15.8427Z" fill="white"/>
<path d="M37.4974 0.148201C35.8938 0.303388 34.4144 1.04831 33.2659 1.90699C30.7002 3.82096 29.2828 6.59362 29.0344 9.7491C30.5346 6.77983 31.414 5.11419 34.528 2.87943C35.066 2.49662 36.8661 1.32756 37.6732 0.799966C38.0354 0.572338 37.9112 0.106777 37.4974 0.148201Z" fill="white"/>
<path d="M25.2893 33.741C25.2376 34.4549 25.0824 35.9963 25.6411 36.4309C26.2722 36.1205 26.4274 34.5789 26.5205 33.8651C26.7999 31.7857 26.7275 29.6131 26.5308 27.5749C25.9308 29.5406 25.4341 31.6512 25.2893 33.741Z" fill="white"/>
<path d="M2.85964 18.4396C2.85964 19.0086 2.39408 19.4639 1.83536 19.4639C1.27665 19.4639 0.800781 19.0086 0.800781 18.4396C0.800781 17.8706 1.26634 17.4153 1.82506 17.4153C2.38377 17.4153 2.85964 17.8706 2.85964 18.4396ZM32.8831 37.7655C32.2727 37.8483 31.8382 38.407 31.921 39.0277C32.0037 39.6382 32.5624 40.0726 33.1832 39.9899C33.7936 39.9071 34.2281 39.3484 34.1453 38.7277C34.0626 38.1069 33.5039 37.6828 32.8831 37.7655ZM51.5056 19.4224C50.9366 19.4224 50.4813 19.888 50.4813 20.4467C50.4813 21.0054 50.9469 21.471 51.5056 21.471C52.0746 21.471 52.5299 21.0054 52.5299 20.4467C52.5299 19.888 52.0643 19.4224 51.5056 19.4224ZM27.9068 0.0343355C27.3068 0.0343355 26.8102 0.520609 26.8102 1.13095C26.8102 1.74139 27.2965 2.22757 27.9068 2.22757C28.5068 2.22757 29.0034 1.74129 29.0034 1.13095C29.0034 0.520609 28.5068 0.0343355 27.9068 0.0343355Z" fill="white"/>
</g>
</svg>
