<svg width="42" height="42" viewBox="0 0 42 42" fill="none" xmlns="http://www.w3.org/2000/svg">
<g id="Vector">
<path d="M28.9862 21.5354C29.257 21.5354 29.4766 21.3159 29.4766 21.0451C29.4766 20.7742 29.257 20.5547 28.9862 20.5547C28.7154 20.5547 28.4958 20.7742 28.4958 21.0451C28.4958 21.3159 28.7154 21.5354 28.9862 21.5354Z" fill="white"/>
<path d="M31.5781 21.5354C31.8489 21.5354 32.0685 21.3159 32.0685 21.0451C32.0685 20.7742 31.8489 20.5547 31.5781 20.5547C31.3073 20.5547 31.0878 20.7742 31.0878 21.0451C31.0878 21.3159 31.3073 21.5354 31.5781 21.5354Z" fill="white"/>
<path d="M26.549 15.6513C26.8198 15.6513 27.0393 15.4318 27.0393 15.1609C27.0393 14.8901 26.8198 14.6706 26.549 14.6706C26.2781 14.6706 26.0586 14.8901 26.0586 15.1609C26.0586 15.4318 26.2781 15.6513 26.549 15.6513Z" fill="white"/>
<path d="M28.3818 13.8185C28.6526 13.8185 28.8721 13.5989 28.8721 13.3281C28.8721 13.0573 28.6526 12.8378 28.3818 12.8378C28.111 12.8378 27.8914 13.0573 27.8914 13.3281C27.8914 13.5989 28.111 13.8185 28.3818 13.8185Z" fill="white"/>
<path d="M21.144 12.8017C21.1873 12.5344 21.0058 12.2826 20.7385 12.2393C20.4712 12.1959 20.2194 12.3775 20.176 12.6448C20.1327 12.9121 20.3143 13.1639 20.5816 13.2073C20.8489 13.2506 21.1007 13.069 21.144 12.8017Z" fill="white"/>
<path d="M21.1442 10.2103C21.1876 9.94297 21.006 9.69115 20.7387 9.64782C20.4714 9.60449 20.2196 9.78605 20.1763 10.0534C20.1329 10.3207 20.3145 10.5725 20.5818 10.6158C20.8491 10.6591 21.1009 10.4776 21.1442 10.2103Z" fill="white"/>
<path d="M14.7807 15.6513C15.0516 15.6513 15.2711 15.4318 15.2711 15.1609C15.2711 14.8901 15.0516 14.6706 14.7807 14.6706C14.5099 14.6706 14.2904 14.8901 14.2904 15.1609C14.2904 15.4318 14.5099 15.6513 14.7807 15.6513Z" fill="white"/>
<path d="M12.9479 13.8185C13.2187 13.8185 13.4383 13.5989 13.4383 13.3281C13.4383 13.0573 13.2187 12.8378 12.9479 12.8378C12.6771 12.8378 12.4576 13.0573 12.4576 13.3281C12.4576 13.5989 12.6771 13.8185 12.9479 13.8185Z" fill="white"/>
<path d="M12.3435 21.5354C12.6143 21.5354 12.8339 21.3159 12.8339 21.0451C12.8339 20.7742 12.6143 20.5547 12.3435 20.5547C12.0727 20.5547 11.8531 20.7742 11.8531 21.0451C11.8531 21.3159 12.0727 21.5354 12.3435 21.5354Z" fill="white"/>
<path d="M9.75156 21.5354C10.0224 21.5354 10.2419 21.3159 10.2419 21.0451C10.2419 20.7742 10.0224 20.5547 9.75156 20.5547C9.48074 20.5547 9.2612 20.7742 9.2612 21.0451C9.2612 21.3159 9.48074 21.5354 9.75156 21.5354Z" fill="white"/>
<path d="M14.7807 27.4195C15.0516 27.4195 15.2711 27.2 15.2711 26.9292C15.2711 26.6583 15.0516 26.4388 14.7807 26.4388C14.5099 26.4388 14.2904 26.6583 14.2904 26.9292C14.2904 27.2 14.5099 27.4195 14.7807 27.4195Z" fill="white"/>
<path d="M12.9479 29.2523C13.2187 29.2523 13.4383 29.0328 13.4383 28.762C13.4383 28.4912 13.2187 28.2716 12.9479 28.2716C12.6771 28.2716 12.4576 28.4912 12.4576 28.762C12.4576 29.0328 12.6771 29.2523 12.9479 29.2523Z" fill="white"/>
<path d="M20.8643 29.8167C21.1145 29.713 21.2333 29.4261 21.1296 29.1758C21.0259 28.9256 20.7389 28.8068 20.4887 28.9105C20.2384 29.0143 20.1197 29.3012 20.2234 29.5515C20.3271 29.8017 20.6141 29.9205 20.8643 29.8167Z" fill="white"/>
<path d="M20.8651 32.409C21.1153 32.3053 21.2341 32.0183 21.1304 31.7681C21.0267 31.5179 20.7397 31.3991 20.4895 31.5028C20.2392 31.6065 20.1205 31.8935 20.2242 32.1437C20.3279 32.3939 20.6149 32.5127 20.8651 32.409Z" fill="white"/>
<path d="M26.549 27.4195C26.8198 27.4195 27.0393 27.2 27.0393 26.9292C27.0393 26.6583 26.8198 26.4388 26.549 26.4388C26.2781 26.4388 26.0586 26.6583 26.0586 26.9292C26.0586 27.2 26.2781 27.4195 26.549 27.4195Z" fill="white"/>
<path d="M28.3818 29.2523C28.6526 29.2523 28.8721 29.0328 28.8721 28.762C28.8721 28.4912 28.6526 28.2716 28.3818 28.2716C28.111 28.2716 27.8914 28.4912 27.8914 28.762C27.8914 29.0328 28.111 29.2523 28.3818 29.2523Z" fill="white"/>
<path d="M20.6648 22.2141C21.3105 22.2141 21.8339 21.6907 21.8339 21.0451C21.8339 20.3994 21.3105 19.876 20.6648 19.876C20.0192 19.876 19.4958 20.3994 19.4958 21.0451C19.4958 21.6907 20.0192 22.2141 20.6648 22.2141Z" fill="white"/>
<path d="M20.6648 18.4885C20.3086 18.4885 20.0198 18.1997 20.0198 17.8435V15.6073C20.0198 15.251 20.3086 14.9622 20.6648 14.9622C21.0211 14.9622 21.3099 15.251 21.3099 15.6073V17.8435C21.3099 18.1997 21.0211 18.4885 20.6648 18.4885Z" fill="white"/>
<path d="M18.4008 19.4263C18.2357 19.4263 18.0706 19.3633 17.9445 19.2372L16.3633 17.656C16.1115 17.4042 16.1115 16.9956 16.3633 16.7435C16.6154 16.4917 17.0237 16.4917 17.2758 16.7435L18.857 18.3247C19.1089 18.5766 19.1089 18.9852 18.857 19.2372C18.731 19.3633 18.5659 19.4263 18.4008 19.4263Z" fill="white"/>
<path d="M17.463 21.6904H15.2268C14.8706 21.6904 14.5818 21.4016 14.5818 21.0453C14.5818 20.6891 14.8706 20.4003 15.2268 20.4003H17.463C17.8193 20.4003 18.1081 20.6891 18.1081 21.0453C18.1081 21.4016 17.8193 21.6904 17.463 21.6904Z" fill="white"/>
<path d="M16.8195 25.5357C16.6544 25.5357 16.4893 25.4727 16.3633 25.3466C16.1115 25.0945 16.1115 24.6862 16.3633 24.4341L17.9445 22.8529C18.1966 22.6008 18.6049 22.6008 18.857 22.8529C19.1089 23.1049 19.1089 23.5133 18.857 23.7654L17.2758 25.3466C17.1497 25.4727 16.9846 25.5357 16.8195 25.5357Z" fill="white"/>
<path d="M20.6648 27.1284C20.3086 27.1284 20.0198 26.8396 20.0198 26.4833V24.2471C20.0198 23.8909 20.3086 23.6021 20.6648 23.6021C21.0211 23.6021 21.3099 23.8909 21.3099 24.2471V26.4833C21.3099 26.8396 21.0211 27.1284 20.6648 27.1284Z" fill="white"/>
<path d="M24.5102 25.5357C24.3451 25.5357 24.18 25.4727 24.0539 25.3466L22.4727 23.7654C22.2208 23.5135 22.2208 23.105 22.4727 22.8529C22.7247 22.601 23.1331 22.6008 23.3852 22.8529L24.9664 24.4341C25.2182 24.6859 25.2182 25.0945 24.9664 25.3466C24.8404 25.4727 24.6753 25.5357 24.5102 25.5357Z" fill="white"/>
<path d="M26.1029 21.6904H23.8667C23.5104 21.6904 23.2216 21.4016 23.2216 21.0453C23.2216 20.6891 23.5104 20.4003 23.8667 20.4003H26.1029C26.4591 20.4003 26.7479 20.6891 26.7479 21.0453C26.7479 21.4016 26.4591 21.6904 26.1029 21.6904Z" fill="white"/>
<path d="M22.9289 19.4263C22.7638 19.4263 22.5987 19.3633 22.4727 19.2372C22.2208 18.9854 22.2208 18.5768 22.4727 18.3247L24.0539 16.7435C24.306 16.4917 24.7143 16.4917 24.9664 16.7435C25.2182 16.9953 25.2182 17.4039 24.9664 17.656L23.3852 19.2372C23.2591 19.3633 23.094 19.4263 22.9289 19.4263Z" fill="white"/>
<path d="M23.356 14.9698C23.276 14.9698 23.1951 14.9549 23.1164 14.9234C22.7857 14.7909 22.6247 14.4154 22.7573 14.0846L24.637 9.39089C24.7695 9.06016 25.1448 8.89922 25.4758 9.03177C25.8065 9.16432 25.9675 9.53984 25.8349 9.87057L23.9552 14.5643C23.8542 14.8164 23.612 14.9698 23.356 14.9698Z" fill="white"/>
<path d="M17.8161 15.0352C17.5656 15.0352 17.3276 14.8885 17.2227 14.6438L15.2328 9.99557C15.0927 9.66797 15.2445 9.2888 15.5721 9.14844C15.8997 9.00807 16.2789 9.16016 16.4193 9.48776L18.4091 14.1359C18.5492 14.4635 18.3974 14.8427 18.0698 14.9831C17.987 15.0185 17.9008 15.0352 17.8161 15.0352Z" fill="white"/>
<path d="M13.944 18.999C13.8641 18.999 13.7831 18.9841 13.7044 18.9526L9.01068 17.0729C8.67995 16.9404 8.51901 16.5648 8.65156 16.2341C8.78411 15.9034 9.15964 15.7427 9.49036 15.875L14.1841 17.7547C14.5148 17.8872 14.6758 18.2628 14.5432 18.5935C14.4422 18.8458 14.2 18.999 13.944 18.999Z" fill="white"/>
<path d="M9.36172 26.5294C9.1112 26.5294 8.87318 26.3828 8.76823 26.138C8.62813 25.8104 8.77995 25.4313 9.10755 25.2909L13.7557 23.301C14.0833 23.1607 14.4625 23.3128 14.6026 23.6404C14.7427 23.968 14.5909 24.3471 14.2633 24.4875L9.6151 26.4773C9.53255 26.5125 9.44635 26.5294 9.36172 26.5294Z" fill="white"/>
<path d="M16.0935 33.1049C16.0135 33.1049 15.9326 33.0901 15.8539 33.0586C15.5232 32.926 15.3622 32.5505 15.4948 32.2198L17.3745 27.526C17.507 27.1953 17.8826 27.0346 18.2133 27.1669C18.544 27.2995 18.705 27.675 18.5724 28.0057L16.6927 32.6995C16.5917 32.9516 16.3495 33.1049 16.0935 33.1049Z" fill="white"/>
<path d="M25.5042 32.994C25.2536 32.994 25.0156 32.8474 24.9107 32.6026L22.9208 27.9544C22.7807 27.6268 22.9326 27.2477 23.2602 27.1073C23.5878 26.9669 23.9669 27.119 24.1073 27.4466L26.0971 32.0948C26.2372 32.4224 26.0854 32.8016 25.7578 32.9419C25.675 32.9771 25.5888 32.994 25.5042 32.994Z" fill="white"/>
<path d="M32.0789 26.2617C31.999 26.2617 31.918 26.2469 31.8393 26.2154L27.1456 24.3357C26.8148 24.2031 26.6539 23.8276 26.7865 23.4969C26.919 23.1661 27.2943 23.0052 27.6253 23.1378L32.319 25.0175C32.6497 25.15 32.8107 25.5255 32.6781 25.8563C32.5771 26.1083 32.3349 26.2617 32.0789 26.2617Z" fill="white"/>
<path d="M27.3206 18.8414C27.0701 18.8414 26.832 18.6948 26.7271 18.45C26.587 18.1224 26.7388 17.7432 27.0664 17.6029L31.7146 15.613C32.0422 15.4727 32.4214 15.6247 32.5617 15.9523C32.7018 16.2799 32.55 16.6591 32.2224 16.7995L27.5742 18.7893C27.4911 18.8245 27.4052 18.8414 27.3206 18.8414Z" fill="white"/>
<path d="M37.4216 17.2862L38.2346 19.2826L40.3844 19.4388L38.737 20.8289L39.2526 22.9219L37.4216 21.7846L35.5904 22.9219L36.1063 20.8289L34.4589 19.4388L36.6086 19.2826L37.4216 17.2862Z" fill="white"/>
<path d="M3.90807 17.2862L4.72109 19.2826L6.87083 19.4388L5.22344 20.8289L5.73932 22.9219L3.90807 21.7846L2.07708 22.9219L2.59271 20.8289L0.945312 19.4388L3.09531 19.2826L3.90807 17.2862Z" fill="white"/>
<path d="M30.125 6.3013L31.9891 7.38385L33.7857 6.19271L33.332 8.3L35.0203 9.64037L32.8758 9.86042L32.1227 11.8802L31.2508 9.90885L29.0971 9.81641L30.7026 8.37813L30.125 6.3013Z" fill="white"/>
<path d="M6.15807 7.1474L8.14453 7.98438L9.77526 6.57448L9.59323 8.7224L11.4378 9.83776L9.3388 10.3281L8.84818 12.4273L7.73307 10.5826L5.58516 10.7646L6.99479 9.13385L6.15807 7.1474Z" fill="white"/>
<path d="M5.73359 30.1857L7.72005 31.0224L9.35078 29.6128L9.16875 31.7607L11.0133 32.8758L8.91432 33.3664L8.4237 35.4654L7.30859 33.6208L5.16068 33.8029L6.57031 32.1721L5.73359 30.1857Z" fill="white"/>
<path d="M20.6648 1L21.4779 2.99635L23.6276 3.1526L21.9802 4.54271L22.4961 6.63568L20.6648 5.49844L18.8336 6.63568L19.3495 4.54271L17.7021 3.1526L19.8518 2.99635L20.6648 1Z" fill="white"/>
<path d="M34.8094 34.8526L32.8229 34.0156L31.1922 35.4255L31.3742 33.2776L29.5297 32.1622L31.6286 31.6719L32.1193 29.5727L33.2344 31.4174L35.3823 31.2354L33.9727 32.8661L34.8094 34.8526Z" fill="white"/>
<path d="M20.6648 35.3643L21.4779 37.3607L23.6276 37.5169L21.9802 38.907L22.4961 41L20.6648 39.8628L18.8336 41L19.3495 38.907L17.7021 37.5169L19.8518 37.3607L20.6648 35.3643Z" fill="white"/>
<path d="M28.9862 21.5354C29.257 21.5354 29.4766 21.3159 29.4766 21.0451C29.4766 20.7742 29.257 20.5547 28.9862 20.5547C28.7154 20.5547 28.4958 20.7742 28.4958 21.0451C28.4958 21.3159 28.7154 21.5354 28.9862 21.5354Z" stroke="white" stroke-width="0.5"/>
<path d="M31.5781 21.5354C31.8489 21.5354 32.0685 21.3159 32.0685 21.0451C32.0685 20.7742 31.8489 20.5547 31.5781 20.5547C31.3073 20.5547 31.0878 20.7742 31.0878 21.0451C31.0878 21.3159 31.3073 21.5354 31.5781 21.5354Z" stroke="white" stroke-width="0.5"/>
<path d="M26.549 15.6513C26.8198 15.6513 27.0393 15.4318 27.0393 15.1609C27.0393 14.8901 26.8198 14.6706 26.549 14.6706C26.2781 14.6706 26.0586 14.8901 26.0586 15.1609C26.0586 15.4318 26.2781 15.6513 26.549 15.6513Z" stroke="white" stroke-width="0.5"/>
<path d="M28.3818 13.8185C28.6526 13.8185 28.8721 13.5989 28.8721 13.3281C28.8721 13.0573 28.6526 12.8378 28.3818 12.8378C28.111 12.8378 27.8914 13.0573 27.8914 13.3281C27.8914 13.5989 28.111 13.8185 28.3818 13.8185Z" stroke="white" stroke-width="0.5"/>
<path d="M21.144 12.8017C21.1873 12.5344 21.0058 12.2826 20.7385 12.2393C20.4712 12.1959 20.2194 12.3775 20.176 12.6448C20.1327 12.9121 20.3143 13.1639 20.5816 13.2073C20.8489 13.2506 21.1007 13.069 21.144 12.8017Z" stroke="white" stroke-width="0.5"/>
<path d="M21.1442 10.2103C21.1876 9.94297 21.006 9.69115 20.7387 9.64782C20.4714 9.60449 20.2196 9.78605 20.1763 10.0534C20.1329 10.3207 20.3145 10.5725 20.5818 10.6158C20.8491 10.6591 21.1009 10.4776 21.1442 10.2103Z" stroke="white" stroke-width="0.5"/>
<path d="M14.7807 15.6513C15.0516 15.6513 15.2711 15.4318 15.2711 15.1609C15.2711 14.8901 15.0516 14.6706 14.7807 14.6706C14.5099 14.6706 14.2904 14.8901 14.2904 15.1609C14.2904 15.4318 14.5099 15.6513 14.7807 15.6513Z" stroke="white" stroke-width="0.5"/>
<path d="M12.9479 13.8185C13.2187 13.8185 13.4383 13.5989 13.4383 13.3281C13.4383 13.0573 13.2187 12.8378 12.9479 12.8378C12.6771 12.8378 12.4576 13.0573 12.4576 13.3281C12.4576 13.5989 12.6771 13.8185 12.9479 13.8185Z" stroke="white" stroke-width="0.5"/>
<path d="M12.3435 21.5354C12.6143 21.5354 12.8339 21.3159 12.8339 21.0451C12.8339 20.7742 12.6143 20.5547 12.3435 20.5547C12.0727 20.5547 11.8531 20.7742 11.8531 21.0451C11.8531 21.3159 12.0727 21.5354 12.3435 21.5354Z" stroke="white" stroke-width="0.5"/>
<path d="M9.75156 21.5354C10.0224 21.5354 10.2419 21.3159 10.2419 21.0451C10.2419 20.7742 10.0224 20.5547 9.75156 20.5547C9.48074 20.5547 9.2612 20.7742 9.2612 21.0451C9.2612 21.3159 9.48074 21.5354 9.75156 21.5354Z" stroke="white" stroke-width="0.5"/>
<path d="M14.7807 27.4195C15.0516 27.4195 15.2711 27.2 15.2711 26.9292C15.2711 26.6583 15.0516 26.4388 14.7807 26.4388C14.5099 26.4388 14.2904 26.6583 14.2904 26.9292C14.2904 27.2 14.5099 27.4195 14.7807 27.4195Z" stroke="white" stroke-width="0.5"/>
<path d="M12.9479 29.2523C13.2187 29.2523 13.4383 29.0328 13.4383 28.762C13.4383 28.4912 13.2187 28.2716 12.9479 28.2716C12.6771 28.2716 12.4576 28.4912 12.4576 28.762C12.4576 29.0328 12.6771 29.2523 12.9479 29.2523Z" stroke="white" stroke-width="0.5"/>
<path d="M20.8643 29.8167C21.1145 29.713 21.2333 29.4261 21.1296 29.1758C21.0259 28.9256 20.7389 28.8068 20.4887 28.9105C20.2384 29.0143 20.1197 29.3012 20.2234 29.5515C20.3271 29.8017 20.6141 29.9205 20.8643 29.8167Z" stroke="white" stroke-width="0.5"/>
<path d="M20.8651 32.409C21.1153 32.3053 21.2341 32.0183 21.1304 31.7681C21.0267 31.5179 20.7397 31.3991 20.4895 31.5028C20.2392 31.6065 20.1205 31.8935 20.2242 32.1437C20.3279 32.3939 20.6149 32.5127 20.8651 32.409Z" stroke="white" stroke-width="0.5"/>
<path d="M26.549 27.4195C26.8198 27.4195 27.0393 27.2 27.0393 26.9292C27.0393 26.6583 26.8198 26.4388 26.549 26.4388C26.2781 26.4388 26.0586 26.6583 26.0586 26.9292C26.0586 27.2 26.2781 27.4195 26.549 27.4195Z" stroke="white" stroke-width="0.5"/>
<path d="M28.3818 29.2523C28.6526 29.2523 28.8721 29.0328 28.8721 28.762C28.8721 28.4912 28.6526 28.2716 28.3818 28.2716C28.111 28.2716 27.8914 28.4912 27.8914 28.762C27.8914 29.0328 28.111 29.2523 28.3818 29.2523Z" stroke="white" stroke-width="0.5"/>
<path d="M20.6648 22.2141C21.3105 22.2141 21.8339 21.6907 21.8339 21.0451C21.8339 20.3994 21.3105 19.876 20.6648 19.876C20.0192 19.876 19.4958 20.3994 19.4958 21.0451C19.4958 21.6907 20.0192 22.2141 20.6648 22.2141Z" stroke="white" stroke-width="0.5"/>
<path d="M20.6648 18.4885C20.3086 18.4885 20.0198 18.1997 20.0198 17.8435V15.6073C20.0198 15.251 20.3086 14.9622 20.6648 14.9622C21.0211 14.9622 21.3099 15.251 21.3099 15.6073V17.8435C21.3099 18.1997 21.0211 18.4885 20.6648 18.4885Z" stroke="white" stroke-width="0.5"/>
<path d="M18.4008 19.4263C18.2357 19.4263 18.0706 19.3633 17.9445 19.2372L16.3633 17.656C16.1115 17.4042 16.1115 16.9956 16.3633 16.7435C16.6154 16.4917 17.0237 16.4917 17.2758 16.7435L18.857 18.3247C19.1089 18.5766 19.1089 18.9852 18.857 19.2372C18.731 19.3633 18.5659 19.4263 18.4008 19.4263Z" stroke="white" stroke-width="0.5"/>
<path d="M17.463 21.6904H15.2268C14.8706 21.6904 14.5818 21.4016 14.5818 21.0453C14.5818 20.6891 14.8706 20.4003 15.2268 20.4003H17.463C17.8193 20.4003 18.1081 20.6891 18.1081 21.0453C18.1081 21.4016 17.8193 21.6904 17.463 21.6904Z" stroke="white" stroke-width="0.5"/>
<path d="M16.8195 25.5357C16.6544 25.5357 16.4893 25.4727 16.3633 25.3466C16.1115 25.0945 16.1115 24.6862 16.3633 24.4341L17.9445 22.8529C18.1966 22.6008 18.6049 22.6008 18.857 22.8529C19.1089 23.1049 19.1089 23.5133 18.857 23.7654L17.2758 25.3466C17.1497 25.4727 16.9846 25.5357 16.8195 25.5357Z" stroke="white" stroke-width="0.5"/>
<path d="M20.6648 27.1284C20.3086 27.1284 20.0198 26.8396 20.0198 26.4833V24.2471C20.0198 23.8909 20.3086 23.6021 20.6648 23.6021C21.0211 23.6021 21.3099 23.8909 21.3099 24.2471V26.4833C21.3099 26.8396 21.0211 27.1284 20.6648 27.1284Z" stroke="white" stroke-width="0.5"/>
<path d="M24.5102 25.5357C24.3451 25.5357 24.18 25.4727 24.0539 25.3466L22.4727 23.7654C22.2208 23.5135 22.2208 23.105 22.4727 22.8529C22.7247 22.601 23.1331 22.6008 23.3852 22.8529L24.9664 24.4341C25.2182 24.6859 25.2182 25.0945 24.9664 25.3466C24.8404 25.4727 24.6753 25.5357 24.5102 25.5357Z" stroke="white" stroke-width="0.5"/>
<path d="M26.1029 21.6904H23.8667C23.5104 21.6904 23.2216 21.4016 23.2216 21.0453C23.2216 20.6891 23.5104 20.4003 23.8667 20.4003H26.1029C26.4591 20.4003 26.7479 20.6891 26.7479 21.0453C26.7479 21.4016 26.4591 21.6904 26.1029 21.6904Z" stroke="white" stroke-width="0.5"/>
<path d="M22.9289 19.4263C22.7638 19.4263 22.5987 19.3633 22.4727 19.2372C22.2208 18.9854 22.2208 18.5768 22.4727 18.3247L24.0539 16.7435C24.306 16.4917 24.7143 16.4917 24.9664 16.7435C25.2182 16.9953 25.2182 17.4039 24.9664 17.656L23.3852 19.2372C23.2591 19.3633 23.094 19.4263 22.9289 19.4263Z" stroke="white" stroke-width="0.5"/>
<path d="M23.356 14.9698C23.276 14.9698 23.1951 14.9549 23.1164 14.9234C22.7857 14.7909 22.6247 14.4154 22.7573 14.0846L24.637 9.39089C24.7695 9.06016 25.1448 8.89922 25.4758 9.03177C25.8065 9.16432 25.9675 9.53984 25.8349 9.87057L23.9552 14.5643C23.8542 14.8164 23.612 14.9698 23.356 14.9698Z" stroke="white" stroke-width="0.5"/>
<path d="M17.8161 15.0352C17.5656 15.0352 17.3276 14.8885 17.2227 14.6438L15.2328 9.99557C15.0927 9.66797 15.2445 9.2888 15.5721 9.14844C15.8997 9.00807 16.2789 9.16016 16.4193 9.48776L18.4091 14.1359C18.5492 14.4635 18.3974 14.8427 18.0698 14.9831C17.987 15.0185 17.9008 15.0352 17.8161 15.0352Z" stroke="white" stroke-width="0.5"/>
<path d="M13.944 18.999C13.8641 18.999 13.7831 18.9841 13.7044 18.9526L9.01068 17.0729C8.67995 16.9404 8.51901 16.5648 8.65156 16.2341C8.78411 15.9034 9.15964 15.7427 9.49036 15.875L14.1841 17.7547C14.5148 17.8872 14.6758 18.2628 14.5432 18.5935C14.4422 18.8458 14.2 18.999 13.944 18.999Z" stroke="white" stroke-width="0.5"/>
<path d="M9.36172 26.5294C9.1112 26.5294 8.87318 26.3828 8.76823 26.138C8.62813 25.8104 8.77995 25.4313 9.10755 25.2909L13.7557 23.301C14.0833 23.1607 14.4625 23.3128 14.6026 23.6404C14.7427 23.968 14.5909 24.3471 14.2633 24.4875L9.6151 26.4773C9.53255 26.5125 9.44635 26.5294 9.36172 26.5294Z" stroke="white" stroke-width="0.5"/>
<path d="M16.0935 33.1049C16.0135 33.1049 15.9326 33.0901 15.8539 33.0586C15.5232 32.926 15.3622 32.5505 15.4948 32.2198L17.3745 27.526C17.507 27.1953 17.8826 27.0346 18.2133 27.1669C18.544 27.2995 18.705 27.675 18.5724 28.0057L16.6927 32.6995C16.5917 32.9516 16.3495 33.1049 16.0935 33.1049Z" stroke="white" stroke-width="0.5"/>
<path d="M25.5042 32.994C25.2536 32.994 25.0156 32.8474 24.9107 32.6026L22.9208 27.9544C22.7807 27.6268 22.9326 27.2477 23.2602 27.1073C23.5878 26.9669 23.9669 27.119 24.1073 27.4466L26.0971 32.0948C26.2372 32.4224 26.0854 32.8016 25.7578 32.9419C25.675 32.9771 25.5888 32.994 25.5042 32.994Z" stroke="white" stroke-width="0.5"/>
<path d="M32.0789 26.2617C31.999 26.2617 31.918 26.2469 31.8393 26.2154L27.1456 24.3357C26.8148 24.2031 26.6539 23.8276 26.7865 23.4969C26.919 23.1661 27.2943 23.0052 27.6253 23.1378L32.319 25.0175C32.6497 25.15 32.8107 25.5255 32.6781 25.8563C32.5771 26.1083 32.3349 26.2617 32.0789 26.2617Z" stroke="white" stroke-width="0.5"/>
<path d="M27.3206 18.8414C27.0701 18.8414 26.832 18.6948 26.7271 18.45C26.587 18.1224 26.7388 17.7432 27.0664 17.6029L31.7146 15.613C32.0422 15.4727 32.4214 15.6247 32.5617 15.9523C32.7018 16.2799 32.55 16.6591 32.2224 16.7995L27.5742 18.7893C27.4911 18.8245 27.4052 18.8414 27.3206 18.8414Z" stroke="white" stroke-width="0.5"/>
<path d="M37.4216 17.2862L38.2346 19.2826L40.3844 19.4388L38.737 20.8289L39.2526 22.9219L37.4216 21.7846L35.5904 22.9219L36.1063 20.8289L34.4589 19.4388L36.6086 19.2826L37.4216 17.2862Z" stroke="white" stroke-width="0.5"/>
<path d="M3.90807 17.2862L4.72109 19.2826L6.87083 19.4388L5.22344 20.8289L5.73932 22.9219L3.90807 21.7846L2.07708 22.9219L2.59271 20.8289L0.945312 19.4388L3.09531 19.2826L3.90807 17.2862Z" stroke="white" stroke-width="0.5"/>
<path d="M30.125 6.3013L31.9891 7.38385L33.7857 6.19271L33.332 8.3L35.0203 9.64037L32.8758 9.86042L32.1227 11.8802L31.2508 9.90885L29.0971 9.81641L30.7026 8.37813L30.125 6.3013Z" stroke="white" stroke-width="0.5"/>
<path d="M6.15807 7.1474L8.14453 7.98438L9.77526 6.57448L9.59323 8.7224L11.4378 9.83776L9.3388 10.3281L8.84818 12.4273L7.73307 10.5826L5.58516 10.7646L6.99479 9.13385L6.15807 7.1474Z" stroke="white" stroke-width="0.5"/>
<path d="M5.73359 30.1857L7.72005 31.0224L9.35078 29.6128L9.16875 31.7607L11.0133 32.8758L8.91432 33.3664L8.4237 35.4654L7.30859 33.6208L5.16068 33.8029L6.57031 32.1721L5.73359 30.1857Z" stroke="white" stroke-width="0.5"/>
<path d="M20.6648 1L21.4779 2.99635L23.6276 3.1526L21.9802 4.54271L22.4961 6.63568L20.6648 5.49844L18.8336 6.63568L19.3495 4.54271L17.7021 3.1526L19.8518 2.99635L20.6648 1Z" stroke="white" stroke-width="0.5"/>
<path d="M34.8094 34.8526L32.8229 34.0156L31.1922 35.4255L31.3742 33.2776L29.5297 32.1622L31.6286 31.6719L32.1193 29.5727L33.2344 31.4174L35.3823 31.2354L33.9727 32.8661L34.8094 34.8526Z" stroke="white" stroke-width="0.5"/>
<path d="M20.6648 35.3643L21.4779 37.3607L23.6276 37.5169L21.9802 38.907L22.4961 41L20.6648 39.8628L18.8336 41L19.3495 38.907L17.7021 37.5169L19.8518 37.3607L20.6648 35.3643Z" stroke="white" stroke-width="0.5"/>
</g>
</svg>
