<svg width="36" height="40" viewBox="0 0 36 40" fill="none" xmlns="http://www.w3.org/2000/svg">
<g id="Vector">
<path d="M17.9988 16.4844C16.0603 16.4844 14.4831 18.0615 14.4831 20C14.4831 21.9385 16.0603 23.5156 17.9988 23.5156C19.9375 23.5156 21.5144 21.9385 21.5144 20C21.5144 18.0615 19.9375 16.4844 17.9988 16.4844Z" fill="white"/>
<path d="M17.9988 0C15.6968 0 14.0165 2.18811 14.5954 4.39667L16.8647 13.2617C16.9975 13.779 17.4644 14.1406 17.9988 14.1406C18.5331 14.1406 19 13.779 19.1328 13.2617L21.4024 4.39911C21.9795 2.17987 20.2973 0 17.9988 0Z" fill="white"/>
<path d="M17.9988 40C20.3007 40 21.9813 37.8116 21.4024 35.6033L19.1328 26.7383C18.8676 25.7037 17.1302 25.7037 16.8647 26.7383L14.5954 35.6009C14.0184 37.8201 15.7005 40 17.9988 40Z" fill="white"/>
<path d="M0.745648 10.0403C-0.399677 12.0261 0.641583 14.577 2.85136 15.1855L11.5959 17.6138C12.1122 17.7557 12.6582 17.533 12.9246 17.0703C13.191 16.608 13.1123 16.0233 12.7311 15.6479L6.25254 9.28589C4.58262 7.66144 1.87846 8.07831 0.745648 10.0403Z" fill="white"/>
<path d="M35.2519 29.9597C36.3972 27.9736 35.3559 25.423 33.1462 24.8145L24.4017 22.3862C23.8868 22.2488 23.3409 22.4673 23.0732 22.9297C22.8065 23.392 22.8855 23.9767 23.2664 24.3521L29.745 30.7141C31.41 32.3337 34.1148 31.9281 35.2519 29.9597Z" fill="white"/>
<path d="M35.2519 10.0391C34.1307 8.09357 31.4326 7.65167 29.7416 9.28833L23.2664 15.6479C22.8855 16.0233 22.8065 16.608 23.0732 17.0703C23.3393 17.5323 23.885 17.7557 24.4017 17.6138L33.144 15.1855C35.3431 14.5847 36.403 12.0364 35.2519 10.0391Z" fill="white"/>
<path d="M12.9246 22.9297C12.6579 22.4673 12.1086 22.2476 11.5959 22.3862L2.8538 24.8145C0.654705 25.415 -0.40517 27.9636 0.745647 29.9609C1.86808 31.9049 4.56187 32.3517 6.25621 30.7117L12.7311 24.3521C13.1123 23.9767 13.191 23.392 12.9246 22.9297Z" fill="white"/>
<path d="M10.9654 18.8336H6.27787C5.62999 18.8336 5.106 19.35 5.106 19.9979C5.106 20.6454 5.62999 21.1697 6.27787 21.1697H10.9654C11.613 21.1697 12.1372 20.6454 12.1372 19.9979C12.1372 19.35 11.613 18.8336 10.9654 18.8336Z" fill="white"/>
<path d="M2.76225 20C2.76225 20.6473 2.23735 21.1719 1.59037 21.1719C0.943097 21.1719 0.418499 20.6473 0.418499 20C0.418499 19.3527 0.943097 18.8281 1.59037 18.8281C2.23735 18.8281 2.76225 19.3527 2.76225 20Z" fill="white"/>
<path d="M25.0279 21.1697H29.7154C30.363 21.1697 30.8872 20.6454 30.8872 19.9979C30.8872 19.35 30.363 18.8336 29.7154 18.8336H25.0279C24.38 18.8336 23.856 19.35 23.856 19.9979C23.856 20.6454 24.38 21.1697 25.0279 21.1697Z" fill="white"/>
<path d="M35.5747 20C35.5747 20.6473 35.0498 21.1719 34.4029 21.1719C33.7556 21.1719 33.231 20.6473 33.231 20C33.231 19.3527 33.7556 18.8281 34.4029 18.8281C35.0498 18.8281 35.5747 19.3527 35.5747 20Z" fill="white"/>
<path d="M11.1668 9.06738C10.6184 9.40949 10.4515 10.1328 10.7948 10.6821L13.2792 14.6579C13.6219 15.2072 14.3473 15.3726 14.8939 15.0299C15.4423 14.6878 15.6092 13.9642 15.2659 13.4152L12.7815 9.43939C12.4382 8.8913 11.7182 8.72284 11.1668 9.06738Z" fill="white"/>
<path d="M10.2955 5.4657C9.9528 4.91699 9.22984 4.75006 8.68083 5.09308C8.13212 5.43579 7.96519 6.15875 8.30821 6.70776C8.65123 7.25647 9.37419 7.4234 9.92289 7.08038C10.4716 6.73737 10.6385 6.0144 10.2955 5.4657Z" fill="white"/>
<path d="M24.8286 30.9302C25.3779 30.5881 25.5451 29.8648 25.2018 29.3155L22.7183 25.3409C22.375 24.7928 21.6517 24.6246 21.1048 24.968C20.5555 25.3101 20.3883 26.0333 20.7316 26.5826L23.2151 30.5573C23.5612 31.1121 24.289 31.2708 24.8286 30.9302Z" fill="white"/>
<path d="M27.6857 33.2935C27.3426 32.7444 26.6197 32.5775 26.071 32.9205C25.522 33.2635 25.355 33.9865 25.698 34.5352C26.0411 35.0842 26.764 35.2512 27.3127 34.9081C27.8617 34.5651 28.0287 33.8422 27.6857 33.2935Z" fill="white"/>
<path d="M22.7137 14.6579L25.1985 10.6821C25.5418 10.1328 25.3746 9.40948 24.8265 9.06738C24.2781 8.72284 23.5551 8.89221 23.2115 9.43939L20.727 13.4152C20.3837 13.9642 20.5509 14.6878 21.099 15.0299C21.6474 15.3738 22.371 15.2054 22.7137 14.6579Z" fill="white"/>
<path d="M27.3106 5.09399C26.7619 4.75128 26.0389 4.91821 25.6959 5.46692C25.3529 6.01562 25.5198 6.73859 26.0688 7.0816C26.6175 7.42462 27.3405 7.25769 27.6835 6.70898C28.0265 6.15997 27.8596 5.43701 27.3106 5.09399Z" fill="white"/>
<path d="M12.7781 30.5582L15.2626 26.5826C15.6059 26.0333 15.4389 25.3101 14.8905 24.968C14.34 24.6243 13.618 24.7928 13.2759 25.3397L10.7914 29.3155C9.96165 30.6427 11.9627 31.8613 12.7781 30.5582Z" fill="white"/>
<path d="M9.92167 32.9193C9.37297 32.5763 8.65001 32.7432 8.30699 33.2922C7.96397 33.8409 8.1309 34.5639 8.67991 34.9069C9.22862 35.2496 9.95158 35.083 10.2946 34.534C10.6376 33.9853 10.4707 33.2623 9.92167 32.9193Z" fill="white"/>
</g>
</svg>
