<svg width="31" height="30" viewBox="0 0 31 30" fill="none" xmlns="http://www.w3.org/2000/svg">
<g id="Vector">
<path d="M14.6211 8.67188H16.3789C16.3789 6.76564 17.9297 5.21484 19.8359 5.21484V3.45703C17.9297 3.45703 16.3789 1.90623 16.3789 0H14.6211C14.6211 1.90623 13.0703 3.45703 11.1641 3.45703V5.21484C13.0703 5.21484 14.6211 6.76564 14.6211 8.67188Z" fill="white"/>
<path d="M9.19379 6.35238L7.67152 5.47348C6.71838 7.12436 4.60004 7.69195 2.9491 6.73887L2.0702 8.26113C3.72102 9.21428 4.28867 11.3327 3.33559 12.9836L4.85785 13.8625C5.811 12.2116 7.92945 11.644 9.58027 12.5971L10.4592 11.0748C8.8083 10.1217 8.24064 8.0032 9.19379 6.35238Z" fill="white"/>
<path d="M4.85785 16.1375L3.33559 17.0164C4.28867 18.6673 3.72107 20.7857 2.0702 21.7389L2.9491 23.2611C4.59992 22.308 6.71838 22.8756 7.67152 24.5265L9.19379 23.6476C8.2407 21.9968 8.8083 19.8783 10.4592 18.9252L9.58027 17.4029C7.92934 18.3559 5.81094 17.7883 4.85785 16.1375Z" fill="white"/>
<path d="M16.3789 21.3281H14.6211C14.6211 23.2344 13.0703 24.7852 11.1641 24.7852V26.543C13.0703 26.543 14.6211 28.0938 14.6211 30H16.3789C16.3789 28.0938 17.9297 26.543 19.8359 26.543V24.7852C17.9297 24.7852 16.3789 23.2344 16.3789 21.3281Z" fill="white"/>
<path d="M27.6644 17.0164L26.1421 16.1375C25.6804 16.9372 24.9349 17.5092 24.0431 17.7482C23.1513 17.9872 22.2196 17.8646 21.4198 17.4029L20.5409 18.9251C22.1917 19.8782 22.7593 21.9967 21.8063 23.6476L23.3285 24.5265C23.7903 23.7268 24.5357 23.1548 25.4276 22.9158C26.3196 22.6769 27.2511 22.7994 28.0509 23.2611L28.9298 21.7389C27.279 20.7858 26.7114 18.6673 27.6644 17.0164Z" fill="white"/>
<path d="M21.4198 12.5971C22.2195 12.1354 23.1511 12.0127 24.0431 12.2517C24.935 12.4907 25.6804 13.0627 26.1421 13.8624L27.6644 12.9835C26.7113 11.3327 27.279 9.21416 28.9298 8.26107L28.0509 6.73881C27.2512 7.20053 26.3195 7.32311 25.4276 7.08416C24.5357 6.84516 23.7903 6.27316 23.3285 5.47348L21.8063 6.35238C22.7594 8.0032 22.1917 10.1217 20.5409 11.0748L21.4198 12.5971Z" fill="white"/>
<path d="M18.6891 12.1439L17.2117 12.9969C16.9682 12.7885 16.6868 12.6236 16.3789 12.5145V10.8101H14.6211V12.5145C14.3132 12.6236 14.0318 12.7885 13.7883 12.9969L12.3109 12.1439L11.432 13.6662L12.9081 14.5184C12.8792 14.6747 12.8633 14.8355 12.8633 15C12.8633 15.1645 12.8792 15.3253 12.9082 15.4815L11.4321 16.3338L12.311 17.856L13.7884 17.0031C14.0318 17.2114 14.3133 17.3763 14.6212 17.4855V19.1898H16.379V17.4855C16.6868 17.3764 16.9683 17.2115 17.2118 17.0031L18.6891 17.8561L19.568 16.3338L18.092 15.4816C18.1209 15.3253 18.1368 15.1645 18.1368 15.0001C18.1368 14.8356 18.121 14.6747 18.092 14.5185L19.568 13.6663L18.6891 12.1439Z" fill="white"/>
<path d="M7.10879 14.1211H8.8666V15.8789H7.10879V14.1211Z" fill="white"/>
<path d="M0.5 14.1211H2.25781V15.8789H0.5V14.1211Z" fill="white"/>
<path d="M28.7422 14.1211H30.5V15.8789H28.7422V14.1211Z" fill="white"/>
<path d="M22.2786 14.1211H24.0364V15.8789H22.2786V14.1211Z" fill="white"/>
<path d="M10.4701 21.9535L11.349 20.4312L12.8713 21.3101L11.9924 22.8324L10.4701 21.9535Z" fill="white"/>
<path d="M18.1279 8.69046L19.0068 7.1682L20.5291 8.0471L19.6502 9.56937L18.1279 8.69046Z" fill="white"/>
<path d="M18.1277 21.3095L19.6499 20.4306L20.5289 21.9529L19.0066 22.8318L18.1277 21.3095Z" fill="white"/>
<path d="M10.4704 8.04651L11.9926 7.1676L12.8715 8.68987L11.3493 9.56878L10.4704 8.04651Z" fill="white"/>
<path d="M6.90512 1.32018H8.66293V3.07799H6.90512V1.32018Z" fill="white"/>
<path d="M22.3371 1.32018H24.0949V3.07799H22.3371V1.32018Z" fill="white"/>
<path d="M22.3371 26.922H24.0949V28.6798H22.3371V26.922Z" fill="white"/>
<path d="M6.90512 26.922H8.66293V28.6798H6.90512V26.922Z" fill="white"/>
</g>
</svg>
