<svg width="29" height="30" viewBox="0 0 29 30" fill="none" xmlns="http://www.w3.org/2000/svg">
<g id="Vector">
<path d="M10.5247 0H12.2822V2.49879H10.5247V0Z" fill="white"/>
<path d="M4.941 1.96635L6.46301 1.08759L7.71241 3.25154L6.19039 4.13031L4.941 1.96635Z" fill="white"/>
<path d="M1.08874 6.46114L1.9675 4.93913L4.13145 6.18852L3.25269 7.71054L1.08874 6.46114Z" fill="white"/>
<path d="M0 10.5222H2.49885V12.2798H0V10.5222Z" fill="white"/>
<path d="M1.08766 16.3409L3.25161 15.0915L4.13037 16.6135L1.96642 17.8629L1.08766 16.3409Z" fill="white"/>
<path d="M18.6736 6.19047L20.8375 4.94108L21.7163 6.46309L19.5524 7.71249L18.6736 6.19047Z" fill="white"/>
<path d="M15.0939 3.25318L16.3433 1.08918L17.8653 1.96794L16.6159 4.13195L15.0939 3.25318Z" fill="white"/>
<path d="M11.7707 13.5716C11.8836 13.5716 11.9969 13.5746 12.1101 13.5805C12.6681 12.4906 13.4871 11.5572 14.5068 10.8557C15.6758 10.0514 17.0356 9.60663 18.4532 9.56134C18.0976 8.19604 17.3496 6.95593 16.2869 5.99527C14.946 4.7831 13.2113 4.11548 11.4022 4.11548C7.38436 4.11548 4.11554 7.3843 4.11554 11.4022C4.11554 13.3753 4.90009 15.2285 6.29036 16.5937C7.4495 14.7497 9.49379 13.5716 11.7707 13.5716Z" fill="white"/>
<path d="M9.81601 29.3067L11.431 30L12.925 26.5201H11.0124L9.81601 29.3067Z" fill="white"/>
<path d="M14.1829 29.3067L15.7979 30L17.2919 26.5201H15.3792L14.1829 29.3067Z" fill="white"/>
<path d="M18.5497 29.3067L20.1647 30L21.6587 26.5201H19.7461L18.5497 29.3067Z" fill="white"/>
<path d="M28.3271 21.035C28.3271 19.1663 26.9313 17.5776 25.0805 17.3395L24.3688 17.2479L24.3162 16.5323C24.2122 15.1167 23.5811 13.8017 22.5393 12.8293C21.4924 11.8523 20.1267 11.3143 18.6938 11.3143C16.3802 11.3143 14.3267 12.701 13.4622 14.8472L13.201 15.4955L12.5105 15.3869C12.2666 15.3485 12.0177 15.3291 11.7708 15.3291C9.59907 15.3291 7.71682 16.7988 7.19355 18.9032L7.03098 19.5571L6.35732 19.5698C4.95282 19.5963 3.81014 20.7606 3.81014 22.1654C3.81014 23.5974 4.9752 24.7625 6.40723 24.7625H24.5996C26.6549 24.7626 28.3271 23.0904 28.3271 21.035Z" fill="white"/>
</g>
</svg>
