<svg width="30" height="30" viewBox="0 0 30 30" fill="none" xmlns="http://www.w3.org/2000/svg">
<g id="Vector">
<path d="M4.8 9.75H0V25.5C0 27.9854 2.01472 30 4.5 30H15.5886C12.5394 28.1627 10.5 24.8195 10.5 21C10.5 15.201 15.201 10.5 21 10.5C22.0425 10.5 23.0494 10.6519 24 10.9348V4.5C24 2.01472 21.9854 0 19.5 0H9.75V4.8C9.75 7.53381 7.53381 9.75 4.8 9.75Z" fill="white"/>
<path d="M7.93934 0.439335C8.03285 0.34584 8.13743 0.26595 8.25 0.200955V4.8C8.25 6.70537 6.70537 8.25 4.8 8.25H0.200955C0.26595 8.13743 0.34584 8.03285 0.439335 7.93934L7.93934 0.439335Z" fill="white"/>
<path fill-rule="evenodd" clip-rule="evenodd" d="M12 21C12 16.0295 16.0295 12 21 12C25.9706 12 30 16.0295 30 21C30 25.9706 25.9706 30 21 30C16.0295 30 12 25.9706 12 21ZM21 21C21.8285 21 22.5 21.6716 22.5 22.5V24C22.5 24.8285 21.8285 25.5 21 25.5C20.1716 25.5 19.5 24.8285 19.5 24V22.5C19.5 21.6716 20.1716 21 21 21ZM21 19.5C21.8285 19.5 22.5 18.8284 22.5 18C22.5 17.1716 21.8285 16.5 21 16.5C20.1716 16.5 19.5 17.1716 19.5 18C19.5 18.8284 20.1716 19.5 21 19.5Z" fill="white"/>
</g>
</svg>
