<svg width="34" height="30" viewBox="0 0 34 30" fill="none" xmlns="http://www.w3.org/2000/svg">
<path id="Vector" d="M28.8281 21.008H26.7592V4.45623C26.7592 1.98939 24.7698 0 22.3029 0H4.23928C4.1597 0 4.08012 7.87425e-08 4.00055 0.0397879C1.53371 0.318302 -0.216958 2.50663 0.0217687 4.97347C0.260495 7.04244 1.8918 8.71353 4.00055 8.95225C4.08012 8.95225 4.1597 8.99204 4.23928 8.99204H4.478V25.5836C4.51779 28.0106 6.50718 30 8.93424 30H28.8281C31.295 30 33.2844 28.0106 33.2844 25.5438C33.3242 22.9973 31.295 21.008 28.8281 21.008ZM4.478 6.56499V6.5252C3.32416 6.5252 2.40904 5.61008 2.40904 4.45623C2.40904 3.30239 3.32416 2.38727 4.478 2.38727H18.3639C17.6876 3.70027 17.6876 5.25199 18.3639 6.56499H4.478ZM23.5761 22.8382H7.26315V20.4509H23.5761V22.8382ZM23.5761 18.0637H7.26315V15.6764H23.5761V18.0637ZM23.5761 13.2891H7.26315V10.9019H23.5761V13.2891ZM28.8679 27.5332C27.7141 27.5332 26.799 26.618 26.799 25.4642V23.3952H28.8679C30.0218 23.3952 30.9369 24.3103 30.9369 25.4642C30.9369 26.618 30.0218 27.5332 28.8679 27.5332Z" fill="white"/>
</svg>
