<svg width="30" height="30" viewBox="0 0 30 30" fill="none" xmlns="http://www.w3.org/2000/svg">
<g id="Vector">
<path d="M8.772 18.4031L13.7501 17.3573L13.0324 15.6251L8.772 18.4031Z" fill="#BF2126"/>
<path d="M5.34412 13.1021L8.12513 8.8425L6.393 8.12475L5.34412 13.1021Z" fill="#BF2126"/>
<path d="M2.18737 18.1249L3.12487 9.375H1.24987L2.18737 18.1249Z" fill="#BF2126"/>
<path d="M21.5573 20.7851L29.283 25.0001L30 23.268L21.5573 20.7851Z" fill="#BF2126"/>
<path d="M6.36712 25.4921L11.7821 28.7501L12.4999 27.018L6.36712 25.4921Z" fill="#BF2126"/>
<path d="M0 2.62425L2.59013 2.26087L3.74887 0L4.90837 2.26087L7.5 2.62425L5.62388 4.38488L6.06563 6.87525L3.74887 5.70038L1.43063 6.87525L1.875 4.38488L0 2.62425Z" fill="#BF2126"/>
<path d="M16.0159 9.42638L12.4999 6.1245L18.5449 5.277L21.246 0L23.9539 5.277L30 6.1245L25.6215 10.2334L26.6542 16.0425L21.246 13.2994L15.837 16.0425L16.584 11.8594C11.4465 13.1779 7.15425 16.6016 4.70925 21.1744C6.40012 20.0392 8.43487 19.3751 10.6245 19.3751C13.1831 19.3751 15.5186 20.2928 17.3524 21.8006L18.435 19.6875L20.1761 23.0798L24.0623 23.6254L21.2475 26.2657L21.912 30L18.4354 28.2375L14.9587 30L15.6247 26.2657L12.8126 23.6254L15.1931 23.2909C13.8915 22.401 12.3221 21.8749 10.6249 21.8749C6.1365 21.8749 2.50012 25.515 2.50012 30H0C0 20.0756 6.81525 11.7619 16.0159 9.42638Z" fill="#BF2126"/>
<path d="M11.25 4.37512C10.5597 4.37512 10.0001 3.81554 10.0001 3.12525C10.0001 2.43496 10.5597 1.87537 11.25 1.87537C11.9403 1.87537 12.4999 2.43496 12.4999 3.12525C12.4999 3.81554 11.9403 4.37512 11.25 4.37512Z" fill="#BF2126"/>
<path d="M26.25 28.7501C25.5595 28.7501 24.9998 28.1904 24.9998 27.4999C24.9998 26.8094 25.5595 26.2496 26.25 26.2496C26.9405 26.2496 27.5002 26.8094 27.5002 27.4999C27.5002 28.1904 26.9405 28.7501 26.25 28.7501Z" fill="#BF2126"/>
<path d="M20.0002 17.5001C20.0002 18.1898 20.559 18.75 21.2498 18.75C21.9412 18.75 22.5 18.1898 22.5 17.5001C22.5 16.8101 21.9412 16.2499 21.2498 16.2499C20.559 16.2499 20.0002 16.8101 20.0002 17.5001Z" fill="#BF2126"/>
</g>
</svg>
