<svg width="25" height="30" viewBox="0 0 25 30" fill="none" xmlns="http://www.w3.org/2000/svg">
<g id="Vector">
<path d="M17.9152 1.21997L16.5652 6.49997H7.54513L6.62516 4.32C6.40523 3.66994 6.88513 3 7.57513 3H11.0151C11.1651 3 11.3051 2.97 11.4351 2.91994V3.73997C11.4351 4.24997 11.7751 4.65994 12.1851 4.65994C12.5951 4.65994 12.9351 4.24997 12.9351 3.73997V0.0399375C13.0152 0.0099375 13.0951 0 13.1851 0H16.9351C17.5752 0 18.0552 0.589969 17.9152 1.21997Z" fill="#BF2126"/>
<path d="M17.3879 7.99969H7.26285C6.74508 7.99969 6.32535 8.41942 6.32535 8.93719V10.0622C6.32535 10.58 6.74508 10.9997 7.26285 10.9997H17.3879C17.9056 10.9997 18.3254 10.58 18.3254 10.0622V8.93719C18.3254 8.41942 17.9056 7.99969 17.3879 7.99969Z" fill="#BF2126"/>
<path d="M24.4153 20.5C23.7052 16.62 20.5253 13.78 18.3752 12.27C18.0553 12.42 17.6953 12.5001 17.3252 12.5001H7.32519C6.95516 12.5001 6.59526 12.42 6.27519 12.27C4.12513 13.78 0.945132 16.62 0.235163 20.5C-0.954805 27.03 2.26523 30 12.3252 30C22.4952 30 25.6053 27.03 24.4153 20.5ZM12.2153 20.2L12.7952 20.34C13.8853 20.62 14.6453 21.59 14.6453 22.72V22.9701C14.6453 23.9901 13.9853 24.85 13.0753 25.1701V25.8301C13.0753 26.2402 12.7352 26.5801 12.3253 26.5801C11.9153 26.5801 11.5753 26.2402 11.5753 25.8301V25.1701C10.6653 24.8501 10.0052 23.9901 10.0052 22.9701C10.0052 22.5501 10.3352 22.2201 10.7552 22.2201C11.1653 22.2201 11.5052 22.5501 11.5052 22.9701C11.5052 23.4201 11.8753 23.7901 12.3253 23.7901C12.7753 23.7901 13.1453 23.4201 13.1453 22.9701V22.72C13.1453 22.2801 12.8553 21.91 12.4352 21.8001L11.8553 21.6601C10.7653 21.3802 10.0052 20.4101 10.0052 19.2801V19.03C10.0052 18.01 10.6652 17.1501 11.5753 16.83V16.17C11.5753 15.76 11.9153 15.42 12.3253 15.42C12.7352 15.42 13.0753 15.76 13.0753 16.17V16.83C13.9852 17.15 14.6453 18.01 14.6453 19.03C14.6453 19.45 14.3153 19.78 13.8953 19.78C13.4852 19.78 13.1453 19.45 13.1453 19.03C13.1453 18.58 12.7753 18.21 12.3253 18.21C11.8753 18.21 11.5052 18.58 11.5052 19.03V19.2801C11.5052 19.72 11.7952 20.09 12.2153 20.2Z" fill="#BF2126"/>
</g>
</svg>
