<svg width="30" height="30" viewBox="0 0 30 30" fill="none" xmlns="http://www.w3.org/2000/svg">
<g id="Vector">
<path d="M15 10.6054L17.4882 3.50947C17.5867 3.22828 17.6367 2.93467 17.6367 2.63672C17.6367 1.18283 16.4539 0 15 0C13.5461 0 12.3633 1.18283 12.3633 2.63672C12.3633 2.93479 12.4133 3.22846 12.5119 3.50959L15 10.6054Z" fill="white"/>
<path d="M15 19.3946L12.5119 26.4904C12.4133 26.7715 12.3633 27.0652 12.3633 27.3633C12.3633 28.8172 13.5461 30 15 30C16.4539 30 17.6367 28.8172 17.6367 27.3633C17.6367 27.0653 17.5867 26.7717 17.4882 26.4904L15 19.3946Z" fill="white"/>
<path d="M2.9748 11.1019C3.23297 11.2509 3.51229 11.3545 3.80502 11.4096L11.1942 12.8027L6.29303 7.09986C6.09879 6.87398 5.86945 6.68385 5.61141 6.5349C5.00215 6.18305 4.29164 6.08977 3.61078 6.27228C2.93004 6.45469 2.36139 6.89074 2.00965 7.5C1.65785 8.10926 1.56457 8.81977 1.74703 9.50062C1.92949 10.1815 2.36543 10.7501 2.9748 11.1019Z" fill="white"/>
<path d="M27.0252 18.8981C26.7672 18.7492 26.4879 18.6456 26.195 18.5903L18.8058 17.1973L23.7068 22.8998C23.901 23.1258 24.1304 23.316 24.3886 23.465C24.7942 23.6992 25.2446 23.8188 25.7013 23.8188C25.9306 23.8188 26.1615 23.7887 26.3892 23.7277C27.07 23.5453 27.6386 23.1092 27.9904 22.4999C28.3421 21.8907 28.4354 21.1802 28.253 20.4993C28.0705 19.8185 27.6346 19.2499 27.0252 18.8981Z" fill="white"/>
<path d="M3.80479 18.5904C3.51211 18.6456 3.23279 18.7492 2.9748 18.8982C2.36549 19.2499 1.92943 19.8186 1.74703 20.4994C1.56463 21.1802 1.65785 21.8907 2.00965 22.5C2.36139 23.1093 2.93004 23.5453 3.61084 23.7277C3.83848 23.7887 4.06934 23.8189 4.29873 23.8189C4.75535 23.8189 5.20582 23.6993 5.61135 23.4652C5.86957 23.316 6.09896 23.1258 6.2932 22.8998L11.1942 17.1974L3.80479 18.5904Z" fill="white"/>
<path d="M26.195 11.4096C26.4878 11.3545 26.7671 11.2509 27.0253 11.1018C27.6346 10.7501 28.0706 10.1814 28.253 9.50062C28.4354 8.81982 28.3421 8.10932 27.9904 7.5C27.6387 6.89074 27.07 6.45469 26.3892 6.27228C25.7085 6.08994 24.998 6.18311 24.3887 6.53484C24.1306 6.68385 23.9013 6.87393 23.7069 7.10004L18.8058 12.8027L26.195 11.4096Z" fill="white"/>
<path d="M19.4531 14.1211H16.5223L17.9877 11.5829L16.4654 10.704L15 13.2422L13.5346 10.704L12.0123 11.5829L13.4777 14.1211H10.5469V15.8789H13.4777L12.0123 18.4171L13.5346 19.296L15 16.7578L16.4654 19.296L17.9877 18.4171L16.5223 15.8789H19.4531V14.1211Z" fill="white"/>
<path d="M3.51562 14.1211H5.27344V15.8789H3.51562V14.1211Z" fill="white"/>
<path d="M7.03125 14.1211H8.78906V15.8789H7.03125V14.1211Z" fill="white"/>
<path d="M0 14.1211H1.75781V15.8789H0V14.1211Z" fill="white"/>
<path d="M28.2422 14.1211H30V15.8789H28.2422V14.1211Z" fill="white"/>
<path d="M24.7266 14.1211H26.4844V15.8789H24.7266V14.1211Z" fill="white"/>
<path d="M21.2109 14.1211H22.9688V15.8789H21.2109V14.1211Z" fill="white"/>
<path d="M8.49611 24.5065L9.37502 22.9842L10.8973 23.8632L10.0184 25.3854L8.49611 24.5065Z" fill="white"/>
<path d="M10.2539 21.4619L11.1328 19.9397L12.6551 20.8186L11.7762 22.3408L10.2539 21.4619Z" fill="white"/>
<path d="M6.7382 27.5511L7.61711 26.0288L9.13937 26.9077L8.26046 28.43L6.7382 27.5511Z" fill="white"/>
<path d="M20.8599 3.09299L21.7388 1.57072L23.261 2.44963L22.3821 3.97189L20.8599 3.09299Z" fill="white"/>
<path d="M19.1019 6.13755L19.9809 4.61528L21.5031 5.49419L20.6242 7.01645L19.1019 6.13755Z" fill="white"/>
<path d="M17.3441 9.1822L18.223 7.65993L19.7453 8.53884L18.8664 10.0611L17.3441 9.1822Z" fill="white"/>
<path d="M19.1017 23.8624L20.6239 22.9835L21.5028 24.5057L19.9806 25.3847L19.1017 23.8624Z" fill="white"/>
<path d="M17.3438 20.8178L18.8661 19.9389L19.745 21.4611L18.2227 22.3401L17.3438 20.8178Z" fill="white"/>
<path d="M20.8594 26.9068L22.3817 26.0279L23.2606 27.5502L21.7383 28.4291L20.8594 26.9068Z" fill="white"/>
<path d="M6.73869 2.44901L8.26096 1.5701L9.13986 3.09237L7.6176 3.97127L6.73869 2.44901Z" fill="white"/>
<path d="M8.49642 5.49355L10.0187 4.61465L10.8976 6.13691L9.37532 7.01582L8.49642 5.49355Z" fill="white"/>
<path d="M10.2542 8.53815L11.7765 7.65924L12.6554 9.18151L11.1331 10.0604L10.2542 8.53815Z" fill="white"/>
</g>
</svg>
