<svg width="30" height="30" viewBox="0 0 30 30" fill="none" xmlns="http://www.w3.org/2000/svg">
<g id="Vector">
<path d="M29.3631 2.28308L22.8008 0.0506239C22.6058 -0.0168747 22.3933 -0.0168747 22.1983 0.0506239L15.6359 2.28308C15.2547 2.41182 14.9997 2.76932 14.9997 3.17056V8.19296C14.9997 14.3228 21.842 17.3028 22.1333 17.4265C22.2508 17.4753 22.3745 17.5003 22.4995 17.5003C22.6245 17.5003 22.7483 17.4753 22.8658 17.4253C23.157 17.3028 29.9994 14.3228 29.9994 8.19296V3.17056C29.9994 2.76932 29.7444 2.41182 29.3631 2.28308ZM26.6069 7.02298L23.1695 11.3979C22.9595 11.6654 22.6483 11.8366 22.3095 11.8691C22.2683 11.8741 22.227 11.8754 22.187 11.8754C21.8908 11.8754 21.6008 11.7704 21.3746 11.5741L19.1871 9.69917C18.6621 9.25043 18.6009 8.46045 19.0521 7.93671C19.5008 7.41297 20.2908 7.35297 20.8133 7.80171L22.0108 8.82794L24.642 5.47926C25.0682 4.93677 25.8532 4.84052 26.3969 5.26927C26.9394 5.69426 27.0344 6.48049 26.6069 7.02298Z" fill="#BF2126"/>
<path d="M0.614987 15.0028C0.273744 15.0091 0 15.2866 0 15.6278V27.1876C0 27.3601 0.139997 27.5001 0.312494 27.5001H3.27743C3.55743 27.5001 3.80242 27.3151 3.87867 27.0463L6.64486 17.299C6.82361 16.669 6.48611 16.0065 5.86988 15.7828C4.7374 15.3703 2.99994 14.9628 0.614987 15.0028Z" fill="#BF2126"/>
<path d="M27.4994 21.8752C24.9995 21.8752 19.9996 25.0389 17.4996 25.0389C14.9997 25.0389 12.1872 23.1251 12.1872 23.1251C12.1872 23.1251 15.5547 23.7501 17.4996 23.7501C19.4446 23.7501 19.9996 23.0864 19.9996 22.1877C19.9996 20.0002 16.2847 19.6602 14.4047 19.374C12.5597 18.3465 11.601 17.534 8.54482 17.2753C8.52732 17.454 8.49982 17.6315 8.44982 17.8078L5.93863 26.6576C8.78232 27.9513 13.6797 30 16.2497 30C19.9996 30 29.9994 25.0001 29.9994 23.7501C29.9994 22.5002 28.7494 21.8752 27.4994 21.8752Z" fill="#BF2126"/>
</g>
</svg>
