<svg width="29" height="30" viewBox="0 0 29 30" fill="none" xmlns="http://www.w3.org/2000/svg">
<path id="Vector" fill-rule="evenodd" clip-rule="evenodd" d="M28.3802 12.1275C28.3802 5.44049 22.9397 0 16.2527 0C9.56573 0 4.12589 5.44049 4.12589 12.1275C4.12589 14.2294 4.66758 16.2861 5.6966 18.1011C6.69942 17.4573 7.87253 17.0374 9.14718 16.909C8.202 15.5034 7.68848 13.8318 7.68848 12.1275C7.68848 7.40486 11.5308 3.56259 16.2534 3.56259C20.976 3.56259 24.8182 7.40486 24.8182 12.1275C24.8182 16.7571 21.126 20.5404 16.5311 20.6871C17.1219 21.7266 17.4723 22.9194 17.507 24.1894C23.6373 23.5587 28.3802 18.3402 28.3802 12.1275ZM18.7358 27.9072H1.04605C0.468985 27.9072 0 28.3769 0 28.9533C0 29.5304 0.46964 30 1.04605 30H18.7358C19.3129 30 19.7819 29.5304 19.7819 28.9533C19.7819 28.3762 19.3129 27.9072 18.7358 27.9072ZM16.7237 24.3958V27.1212H3.05823V24.3958C3.05823 20.6151 6.09943 17.6531 9.981 17.6531C13.6988 17.6531 16.7237 20.6779 16.7237 24.3958ZM21.1436 10.7408V13.5141H18.033C17.8162 13.5141 17.64 13.6903 17.64 13.9071V17.0177H14.8667V13.9071C14.8667 13.6903 14.6905 13.5141 14.4737 13.5141H11.3631V10.7408H14.4737C14.6905 10.7408 14.8667 10.5646 14.8667 10.3478V7.23718H17.64V10.3478C17.64 10.5646 17.8162 10.7408 18.033 10.7408H21.1436Z" fill="white"/>
</svg>
