<svg width="31" height="30" viewBox="0 0 31 30" fill="none" xmlns="http://www.w3.org/2000/svg">
<g id="Vector">
<path d="M9.24377 9.62268C9.19121 9.62268 9.1383 9.61799 9.08562 9.60832C9.05316 9.60246 8.28096 9.46037 7.41107 9.22916C5.68889 8.77148 5.14936 8.37826 4.89342 8.12226C3.86533 7.09418 3.86533 5.42145 4.89342 4.39336C5.92145 3.36539 7.5943 3.36527 8.62232 4.39336C8.87826 4.6493 9.27154 5.18877 9.72922 6.91102C9.96037 7.7809 10.1025 8.55311 10.1084 8.58557C10.1604 8.86963 10.0695 9.16102 9.86533 9.36521C9.69893 9.5315 9.47469 9.62268 9.24377 9.62268Z" fill="white"/>
<path d="M24.2421 26.3777C23.567 26.3777 22.8917 26.1206 22.3777 25.6066C22.1218 25.3507 21.7285 24.8112 21.2708 23.089C21.0397 22.2191 20.8976 21.4469 20.8917 21.4144C20.8397 21.1304 20.9306 20.839 21.1347 20.6348C21.3389 20.4307 21.6303 20.3396 21.9144 20.3917C21.9468 20.3977 22.719 20.5397 23.5889 20.7709C25.3112 21.2286 25.8506 21.6218 26.1066 21.8778C27.1347 22.9059 27.1347 24.5786 26.1066 25.6067C25.5926 26.1206 24.9174 26.3777 24.2421 26.3777Z" fill="white"/>
<path d="M3.13672 17.6367C1.68283 17.6367 0.5 16.4539 0.5 15C0.5 13.5461 1.68283 12.3633 3.13672 12.3633C3.49871 12.3633 4.15824 12.4667 5.69961 13.3608C6.47814 13.8125 7.12467 14.258 7.15186 14.2768C7.38945 14.441 7.53125 14.7113 7.53125 15C7.53125 15.2887 7.38945 15.559 7.15186 15.7232C7.12467 15.7419 6.47814 16.1875 5.69961 16.6392C4.15824 17.5333 3.49871 17.6367 3.13672 17.6367Z" fill="white"/>
<path d="M27.8633 17.6367C27.5013 17.6367 26.8418 17.5333 25.3004 16.6392C24.5219 16.1875 23.8753 15.742 23.8481 15.7232C23.6105 15.559 23.4688 15.2887 23.4688 15C23.4688 14.7113 23.6105 14.441 23.8481 14.2768C23.8753 14.2581 24.5219 13.8125 25.3004 13.3608C26.8418 12.4667 27.5013 12.3633 27.8633 12.3633C29.3172 12.3633 30.5 13.5461 30.5 15C30.5 16.4539 29.3172 17.6367 27.8633 17.6367Z" fill="white"/>
<path d="M6.75787 26.3777C6.08264 26.3777 5.4074 26.1206 4.89342 25.6066C3.86533 24.5786 3.86533 22.9058 4.89342 21.8777C5.14936 21.6218 5.68883 21.2285 7.41107 20.7708C8.28096 20.5397 9.05316 20.3976 9.08562 20.3917C9.3701 20.3396 9.66113 20.4306 9.86527 20.6347C10.0694 20.8389 10.1603 21.1303 10.1083 21.4144C10.1025 21.4468 9.96037 22.219 9.72916 23.0889C9.27148 24.8112 8.87826 25.3506 8.62226 25.6066C8.10828 26.1206 7.43305 26.3777 6.75787 26.3777Z" fill="white"/>
<path d="M21.7562 9.62268C21.5253 9.62268 21.3011 9.53156 21.1348 9.36521C20.9306 9.16107 20.8398 8.86963 20.8917 8.58557C20.8977 8.55311 21.0397 7.7809 21.2709 6.91102C21.7286 5.18883 22.1218 4.6493 22.3778 4.39336C23.4058 3.36527 25.0787 3.36539 26.1067 4.39336C27.1348 5.42145 27.1348 7.09418 26.1067 8.12226C25.8508 8.3782 25.3113 8.77148 23.589 9.22916C22.7192 9.46031 21.947 9.6024 21.9145 9.60832C21.8617 9.61793 21.8088 9.62268 21.7562 9.62268Z" fill="white"/>
<path d="M12.0225 24.1796C11.9096 24.1796 11.7949 24.1578 11.6843 24.1116C11.2363 23.9246 11.0248 23.4099 11.2118 22.962L11.596 22.0416C11.7829 21.5935 12.2979 21.382 12.7456 21.569C13.1935 21.756 13.4051 22.2707 13.2181 22.7186L12.8339 23.6391C12.6931 23.9763 12.3665 24.1796 12.0225 24.1796Z" fill="white"/>
<path d="M18.5926 8.44049C18.4797 8.44049 18.3651 8.41863 18.2544 8.37246C17.8064 8.18549 17.5949 7.67074 17.7819 7.22285L18.1661 6.3024C18.3531 5.85439 18.868 5.64287 19.3157 5.82984C19.7637 6.01682 19.9752 6.53156 19.7882 6.97945L19.404 7.8999C19.2633 8.23717 18.9366 8.44049 18.5926 8.44049Z" fill="white"/>
<path d="M23.8295 19.327C23.7166 19.327 23.6019 19.3052 23.4913 19.259L22.5708 18.8748C22.1228 18.6878 21.9113 18.1731 22.0982 17.7252C22.2852 17.2772 22.8001 17.0657 23.2479 17.2526L24.1683 17.6368C24.6162 17.8238 24.8278 18.3386 24.6409 18.7864C24.5001 19.1237 24.1735 19.327 23.8295 19.327Z" fill="white"/>
<path d="M8.09029 12.7569C7.97744 12.7569 7.86271 12.735 7.75215 12.6888L6.8317 12.3046C6.38369 12.1177 6.17217 11.6029 6.35914 11.155C6.54611 10.7071 7.06104 10.4955 7.50875 10.6825L8.4292 11.0667C8.87715 11.2536 9.08873 11.7684 8.90176 12.2163C8.7609 12.5535 8.4343 12.7569 8.09029 12.7569Z" fill="white"/>
<path d="M7.15156 19.2812C6.8058 19.2812 6.47791 19.0758 6.33828 18.7361C6.15377 18.2872 6.36816 17.7736 6.81711 17.5891L7.73961 17.2099C8.18844 17.0255 8.70207 17.2397 8.88664 17.6887C9.07115 18.1377 8.85676 18.6513 8.40781 18.8358L7.48531 19.2149C7.37604 19.2598 7.26283 19.2812 7.15156 19.2812Z" fill="white"/>
<path d="M22.9266 12.7977C22.5809 12.7977 22.253 12.5923 22.1134 12.2527C21.9288 11.8037 22.1432 11.2901 22.5922 11.1056L23.5147 10.7265C23.9635 10.542 24.4771 10.7563 24.6617 11.2053C24.8462 11.6542 24.6318 12.1678 24.1829 12.3523L23.2604 12.7315C23.1511 12.7764 23.0379 12.7977 22.9266 12.7977Z" fill="white"/>
<path d="M18.9316 24.1986C18.5858 24.1986 18.2579 23.9933 18.1183 23.6536L17.7392 22.7311C17.5546 22.2821 17.769 21.7686 18.218 21.5841C18.6668 21.3996 19.1805 21.6139 19.365 22.0629L19.7442 22.9854C19.9287 23.4343 19.7143 23.9479 19.2654 24.1324C19.1561 24.1774 19.0429 24.1986 18.9316 24.1986Z" fill="white"/>
<path d="M12.4482 8.42355C12.1024 8.42355 11.7746 8.21818 11.6349 7.87852L11.2558 6.95602C11.0712 6.50707 11.2856 5.9935 11.7346 5.80898C12.1834 5.62453 12.6971 5.83881 12.8816 6.28781L13.2608 7.21031C13.4453 7.65926 13.2309 8.17283 12.782 8.35734C12.6727 8.40223 12.5595 8.42355 12.4482 8.42355Z" fill="white"/>
<path d="M11.7504 19.5992C11.5255 19.5992 11.3005 19.5134 11.129 19.3417C10.7857 18.9986 10.7857 18.442 11.129 18.0988L11.5433 17.6845C11.8865 17.3413 12.443 17.3413 12.7862 17.6845C13.1295 18.0277 13.1295 18.5842 12.7862 18.9274L12.3719 19.3417C12.2003 19.5134 11.9754 19.5992 11.7504 19.5992Z" fill="white"/>
<path d="M18.8353 12.5143C18.6103 12.5143 18.3854 12.4285 18.2138 12.2569C17.8705 11.9137 17.8705 11.3572 18.2138 11.014L18.6281 10.5997C18.9713 10.2565 19.5278 10.2565 19.871 10.5997C20.2143 10.9429 20.2143 11.4994 19.871 11.8426L19.4567 12.2569C19.2852 12.4285 19.0602 12.5143 18.8353 12.5143Z" fill="white"/>
<path d="M19.2496 19.5992C19.0246 19.5992 18.7997 19.5134 18.6281 19.3417L18.2138 18.9274C17.8705 18.5842 17.8705 18.0277 18.2138 17.6845C18.557 17.3413 19.1135 17.3413 19.4567 17.6845L19.871 18.0988C20.2143 18.442 20.2143 18.9985 19.871 19.3417C19.6995 19.5134 19.4745 19.5992 19.2496 19.5992Z" fill="white"/>
<path d="M12.1647 12.5143C11.9398 12.5143 11.7148 12.4285 11.5433 12.2569L11.129 11.8426C10.7857 11.4994 10.7857 10.9429 11.129 10.5997C11.4721 10.2565 12.0287 10.2565 12.3719 10.5997L12.7862 11.014C13.1295 11.3572 13.1295 11.9137 12.7862 12.2569C12.6146 12.4285 12.3897 12.5143 12.1647 12.5143Z" fill="white"/>
<path d="M10.7832 15.8496H10.1973C9.71187 15.8496 9.31836 15.4561 9.31836 14.9707C9.31836 14.4853 9.71187 14.0918 10.1973 14.0918H10.7832C11.2686 14.0918 11.6621 14.4853 11.6621 14.9707C11.6621 15.4561 11.2686 15.8496 10.7832 15.8496Z" fill="white"/>
<path d="M20.8027 15.8496H20.2168C19.7314 15.8496 19.3379 15.4561 19.3379 14.9707C19.3379 14.4853 19.7314 14.0918 20.2168 14.0918H20.8027C21.2881 14.0918 21.6816 14.4853 21.6816 14.9707C21.6816 15.4561 21.2881 15.8496 20.8027 15.8496Z" fill="white"/>
<path d="M15.5 7.03125C15.2113 7.03125 14.941 6.88945 14.7768 6.65186C14.7581 6.62467 14.3125 5.97814 13.8608 5.19961C12.9667 3.65824 12.8633 2.99871 12.8633 2.63672C12.8633 1.18283 14.0461 0 15.5 0C16.9539 0 18.1367 1.18283 18.1367 2.63672C18.1367 2.99871 18.0333 3.65824 17.1392 5.19961C16.6875 5.97814 16.242 6.62467 16.2232 6.65186C16.059 6.88945 15.7887 7.03125 15.5 7.03125Z" fill="white"/>
<path d="M15.5 11.1328C15.0146 11.1328 14.6211 10.7393 14.6211 10.2539V9.66797C14.6211 9.18258 15.0146 8.78906 15.5 8.78906C15.9854 8.78906 16.3789 9.18258 16.3789 9.66797V10.2539C16.3789 10.7393 15.9854 11.1328 15.5 11.1328Z" fill="white"/>
<path d="M15.5 17.6367C14.0461 17.6367 12.8633 16.4539 12.8633 15C12.8633 13.5461 14.0461 12.3633 15.5 12.3633C16.9539 12.3633 18.1367 13.5461 18.1367 15C18.1367 16.4539 16.9539 17.6367 15.5 17.6367Z" fill="white"/>
<path d="M15.5 21.1523C15.0146 21.1523 14.6211 20.7588 14.6211 20.2734V19.6875C14.6211 19.2021 15.0146 18.8086 15.5 18.8086C15.9854 18.8086 16.3789 19.2021 16.3789 19.6875V20.2734C16.3789 20.7588 15.9854 21.1523 15.5 21.1523Z" fill="white"/>
<path d="M15.5 30C14.0461 30 12.8633 28.8172 12.8633 27.3633C12.8633 27.0013 12.9667 26.3418 13.8608 24.8004C14.3125 24.0219 14.758 23.3753 14.7768 23.3481C14.941 23.1105 15.2113 22.9688 15.5 22.9688C15.7887 22.9688 16.059 23.1105 16.2232 23.3481C16.2419 23.3753 16.6875 24.0219 17.1392 24.8004C18.0333 26.3418 18.1367 27.0013 18.1367 27.3633C18.1367 28.8172 16.9539 30 15.5 30Z" fill="white"/>
</g>
</svg>
