<svg width="26" height="30" viewBox="0 0 26 30" fill="none" xmlns="http://www.w3.org/2000/svg">
<path id="Vector" d="M16.0387 12.8334C16.0387 13.4678 15.8506 14.088 15.4981 14.6155C15.1456 15.143 14.6446 15.5542 14.0585 15.797C13.4724 16.0398 12.8274 16.1033 12.2052 15.9795C11.5829 15.8557 11.0114 15.5502 10.5627 15.1016C10.1141 14.653 9.80863 14.0815 9.68486 13.4592C9.56109 12.837 9.62461 12.192 9.8674 11.6059C10.1102 11.0197 10.5213 10.5188 11.0488 10.1663C11.5763 9.81382 12.1965 9.62569 12.831 9.62569C13.6817 9.62569 14.4976 9.96364 15.0992 10.5652C15.7007 11.1668 16.0387 11.9827 16.0387 12.8334ZM16.4878 25.1297C15.7876 26.2284 15.2273 27.4101 14.8197 28.6475C14.6621 29.0464 14.3882 29.3887 14.0335 29.6298C13.6788 29.871 13.2599 30 12.831 30C12.4021 30 11.9831 29.871 11.6284 29.6298C11.2738 29.3887 10.9998 29.0464 10.8422 28.6475C10.4346 27.4101 9.87427 26.2284 9.17414 25.1297C6.21915 24.2511 3.67928 22.3379 2.0192 19.7402C0.359125 17.1425 -0.310172 14.034 0.13376 10.9833C0.577692 7.93255 2.10517 5.14365 4.43675 3.12681C6.76833 1.10996 9.74811 0 12.831 0C15.9138 0 18.8936 1.10996 21.2252 3.12681C23.5567 5.14365 25.0842 7.93255 25.5282 10.9833C25.9721 14.034 25.3028 17.1425 23.6427 19.7402C21.9826 22.3379 19.4428 24.2511 16.4878 25.1297ZM18.1772 12.8334C18.1772 11.776 17.8636 10.7424 17.2762 9.86322C16.6887 8.98404 15.8538 8.2988 14.8769 7.89415C13.9 7.48951 12.825 7.38364 11.788 7.58992C10.7509 7.79621 9.79829 8.30539 9.05061 9.05307C8.30293 9.80075 7.79375 10.7534 7.58746 11.7904C7.38118 12.8275 7.48705 13.9024 7.89169 14.8793C8.29634 15.8562 8.98158 16.6912 9.86076 17.2786C10.7399 17.8661 11.7736 18.1796 12.831 18.1796C14.2489 18.1796 15.6087 17.6164 16.6113 16.6138C17.6139 15.6112 18.1772 14.2513 18.1772 12.8334Z" fill="#BF2126"/>
</svg>
