<svg width="33" height="30" viewBox="0 0 33 30" fill="none" xmlns="http://www.w3.org/2000/svg">
<path id="Vector" d="M21.822 13.5275H31.882C32.4729 13.5316 32.9552 13.0559 32.9593 12.4651C32.9594 12.4483 32.9591 12.4316 32.9584 12.4148C32.6248 7.52929 30.1303 3.04699 26.1541 0.188715C25.666 -0.140859 25.003 -0.0122704 24.6734 0.475918C24.6641 0.489677 24.6551 0.503694 24.6464 0.517903L19.3136 9.02742C20.8669 9.9973 21.814 11.6963 21.822 13.5275ZM19.3137 18.0209C17.5977 19.1182 15.4005 19.1182 13.6845 18.0209L8.35169 26.5469C8.03742 27.0386 8.18131 27.692 8.6731 28.0063C8.68859 28.0162 8.70441 28.0257 8.72042 28.0348C13.5752 30.6551 19.423 30.6551 24.2778 28.0348C24.7853 27.7466 24.9632 27.1017 24.6751 26.5941C24.666 26.5781 24.6565 26.5623 24.6466 26.5468L19.3137 18.0209ZM16.4991 16.7041C18.259 16.7041 19.6857 15.2775 19.6857 13.5176C19.6857 11.7576 18.259 10.331 16.4991 10.331C14.7392 10.331 13.3125 11.7576 13.3125 13.5176C13.3089 15.2792 14.7341 16.7104 16.4958 16.714H16.499L16.4991 16.7041ZM11.1761 13.5275C11.1826 11.6976 12.1304 9.99994 13.6845 9.03404L8.35169 0.514688C8.05047 0.0127403 7.39929 -0.149989 6.89735 0.151295C6.87921 0.162161 6.8614 0.173605 6.84398 0.1855C2.86781 3.04815 0.373569 7.53334 0.0396872 12.4214C0.0196916 13.0119 0.482162 13.5069 1.07271 13.5269C1.08608 13.5273 1.09945 13.5275 1.11283 13.5275H11.1761Z" fill="white"/>
</svg>
