<svg width="31" height="30" viewBox="0 0 31 30" fill="none" xmlns="http://www.w3.org/2000/svg">
<path id="Vector" d="M10.8125 30C16.4988 30 21.125 25.6044 21.125 20.2734C21.125 16.6325 18.9369 13.2582 15.5 11.6121V8.78906H11.75V7.91016C11.75 7.42523 12.1702 7.03125 12.6875 7.03125H18.9181C19.3433 7.27576 19.7368 7.50867 19.9943 7.68615C19.8441 8.80764 19.6185 9.39738 19.3681 10.4362C20.6134 10.1712 21.0546 10.0014 22.3023 9.84996C22.7384 10.4098 23.4014 11.4893 23.9375 12.3047C24.4858 11.4707 25.1467 10.392 25.5744 9.84908C26.7679 9.98965 27.4037 10.2024 28.5069 10.4362C28.2247 9.2707 28.0426 8.85381 27.8816 7.68445C28.4498 7.2951 29.7136 6.60703 30.5 6.15234C29.6511 5.66127 28.4499 5.01088 27.8807 4.61854C28.0309 3.49705 28.2565 2.9073 28.5069 1.8685C27.2638 2.13305 26.8191 2.30379 25.5718 2.45473C25.1564 1.92205 24.4225 0.737285 23.9375 0C23.4137 0.795879 22.7199 1.92199 22.3014 2.45561C21.1052 2.31475 20.4761 2.10328 19.3681 1.8685C19.6503 3.03398 19.8324 3.45088 19.9934 4.62023C19.7406 4.79355 19.3427 5.02869 18.9177 5.27344H12.6875C11.1366 5.27344 9.875 6.45621 9.875 7.91016V8.78906H6.125V11.6121C2.68812 13.2582 0.5 16.6325 0.5 20.2734C0.5 25.6044 5.12619 30 10.8125 30Z" fill="white"/>
</svg>
