<svg width="30" height="30" viewBox="0 0 30 30" fill="none" xmlns="http://www.w3.org/2000/svg">
<g id="Vector">
<path d="M28.083 1.75162H29.9412V3.50323H28.083V1.75162Z" fill="white"/>
<path d="M26.2146 0H28.0728V1.75162H26.2146V0Z" fill="white"/>
<path d="M1.81216 28.1663H3.56378V29.918H1.81216V28.1663Z" fill="white"/>
<path d="M1.87055 22.3276H3.62217V24.0792H1.87055V22.3276Z" fill="white"/>
<path d="M0.0605469 26.4147H1.81216V28.1663H0.0605469V26.4147Z" fill="white"/>
<path d="M17.7138 15.0077L18.957 13.7269L17.1985 13.4214L17.4514 11.6544L15.849 12.441L15.0151 10.8629L14.1811 12.441L12.5789 11.6545L12.8318 13.4214L11.0732 13.727L12.3163 15.0077L11.0731 16.2885L12.8318 16.594L12.5789 18.3609L14.1811 17.5744L15.0151 19.1525L15.849 17.5744L17.4514 18.361L17.1985 16.594L18.9571 16.2885L17.7138 15.0077Z" fill="white"/>
<path d="M22.9125 9.26991L23.8274 2.87867L18.0317 5.7237L15.0152 0.0154142L11.9986 5.7237L6.20288 2.87861L7.11769 9.26985L0.756639 10.3748L5.25339 15.0077L0.756639 19.6406L7.11769 20.7456L6.20288 27.1368L11.9986 24.2917L15.0152 30L18.0317 24.2917L23.8274 27.1367L22.9125 20.7456L29.2736 19.6406L24.7769 15.0077L29.2736 10.3748L22.9125 9.26991ZM19.6549 21.394L16.6034 19.896L15.0151 22.9016L13.4268 19.896L10.3752 21.394L10.8569 18.0288L7.5076 17.447L9.87527 15.0077L7.50766 12.5684L10.8569 11.9866L10.3752 8.62146L13.4268 10.1194L15.0151 7.11384L16.6034 10.1194L19.6549 8.6214L19.1733 11.9866L22.5225 12.5684L20.1549 15.0077L22.5227 17.4469L19.1733 18.0288L19.6549 21.394Z" fill="white"/>
</g>
</svg>
